<?xml version="1.0" encoding="utf-8"?><svg xmlns="http://www.w3.org/2000/svg" xmlns:xlink="http://www.w3.org/1999/xlink" width="2231" height="584" preserveAspectRatio="xMidYMid" viewBox="0 0 2231 584" style="z-index:1;margin-right:-2px;display:block;background-repeat-y:initial;background-repeat-x:initial;animation-play-state:paused" ><g transform="translate(1115.5,292) scale(1,1) translate(-1115.5,-292)" style="transform:matrix(1, 0, 0, 1, 0, 0);animation-play-state:paused" ><path id="path0" d="M 1283.5792457095026 185.17873437292076
c 0 21.12216713325107 -5.168189830476325 6.0670054531678606 -11.235195283644186 6.0670054531678606
S 1261.1088551422145 206.30090150617184 1261.1088551422145 185.17873437292076
s 5.168189830476325 -6.0670054531678606 11.235195283644186 -6.0670054531678606
S 1283.5792457095026 164.05656723966968 1283.5792457095026 185.17873437292076
z" fill="none" stroke="none" style="animation-play-state:paused" ></path>


<circle cx="0" cy="0" r="2.746163737302109" fill="#9df871" transform="translate(1274.4034423828125 178.58807373046875)" style="animation-play-state:paused" ></circle>
<path id="path1" d="M 264.8281716565334 367.49210849843143
c 0 28.858852169225766 -7.0612085094914105 8.289244772011656 -15.350453281503068 8.289244772011656
S 234.12726509352728 396.3509606676572 234.12726509352728 367.49210849843143
s 7.0612085094914105 -8.289244772011656 15.350453281503068 -8.289244772011656
S 264.8281716565334 338.63325632920566 264.8281716565334 367.49210849843143
z" fill="none" stroke="none" style="animation-play-state:paused" ></path>


<circle cx="0" cy="0" r="1.5481664231960766" fill="#66ba5d" transform="translate(250.87957763671875 359.0157775878906)" style="animation-play-state:paused" ></circle>
<path id="path2" d="M 294.76912331110043 283.79091397945666
c 0 27.500739181408196 -6.728904267791366 7.899148488276822 -14.628052756068188 7.899148488276822
S 265.51301779896403 311.2916531608649 265.51301779896403 283.79091397945666
s 6.728904267791366 -7.899148488276822 14.628052756068188 -7.899148488276822
S 294.76912331110043 256.29017479804844 294.76912331110043 283.79091397945666
z" fill="none" stroke="none" style="animation-play-state:paused" ></path>


<circle cx="0" cy="0" r="2.914166578011897" fill="#e0ff77" transform="translate(294.04107666015625 295.00830078125)" style="animation-play-state:paused" ></circle>
<path id="path3" d="M 2105.7216042514956 172.28267674128145
c 0 19.359479628361328 -4.736893951620324 5.560701595380382 -10.297595547000707 5.560701595380382
S 2085.1264131574944 191.64215636964278 2085.1264131574944 172.28267674128145
s 4.736893951620324 -5.560701595380382 10.297595547000707 -5.560701595380382
S 2105.7216042514956 152.92319711292012 2105.7216042514956 172.28267674128145
z" fill="none" stroke="none" style="animation-play-state:paused" ></path>


<circle cx="0" cy="0" r="1.9615333148996994" fill="#51cacc" transform="translate(2100.8251953125 180.9290771484375)" style="animation-play-state:paused" ></circle>
<path id="path4" d="M 1577.5685927793536 466.63466458348756
c 0 22.48448457302987 -5.5015228210605 6.45830939863624 -11.95983221969674 6.45830939863624
S 1553.6489283399603 489.11914915651744 1553.6489283399603 466.63466458348756
s 5.5015228210605 -6.45830939863624 11.95983221969674 -6.45830939863624
S 1577.5685927793536 444.1501800104577 1577.5685927793536 466.63466458348756
z" fill="none" stroke="none" style="animation-play-state:paused" ></path>


<circle cx="0" cy="0" r="1.5685465524301283" fill="#51cacc" transform="translate(1565.3814697265625 473.0995788574219)" style="animation-play-state:paused" ></circle>
<path id="path5" d="M 2049.4136970463987 178.33495182633513
c 0 24.05574411421232 -5.885979942839184 6.909628628550347 -12.795608571389533 6.909628628550347
S 2023.8224799036195 202.39069594054746 2023.8224799036195 178.33495182633513
s 5.885979942839184 -6.909628628550347 12.795608571389533 -6.909628628550347
S 2049.4136970463987 154.2792077121228 2049.4136970463987 178.33495182633513
z" fill="none" stroke="none" style="animation-play-state:paused" ></path>


<circle cx="0" cy="0" r="2.731045245397643" fill="#9df871" transform="translate(2024.125244140625 185.90052795410156)" style="animation-play-state:paused" ></circle>
<path id="path6" d="M 1201.8812149543471 310.3246905731834
c 0 34.69374847288577 -8.488895902940135 9.965225625190595 -18.454121528130727 9.965225625190595
S 1164.9729718980855 345.01843904606915 1164.9729718980855 310.3246905731834
s 8.488895902940135 -9.965225625190595 18.454121528130727 -9.965225625190595
S 1201.8812149543471 275.6309421002976 1201.8812149543471 310.3246905731834
z" fill="none" stroke="none" style="animation-play-state:paused" ></path>


<circle cx="0" cy="0" r="1.9672832478112445" fill="#e0ff77" transform="translate(1164.9970703125 313.3758850097656)" style="animation-play-state:paused" ></circle>
<path id="path7" d="M 958.1332247681781 189.1626128352421
c 0 22.28393147576559 -5.452451318538389 6.400703721762458 -11.853155040300846 6.400703721762458
S 934.4269146875764 211.4465443110077 934.4269146875764 189.1626128352421
s 5.452451318538389 -6.400703721762458 11.853155040300846 -6.400703721762458
S 958.1332247681781 166.8786813594765 958.1332247681781 189.1626128352421
z" fill="none" stroke="none" style="animation-play-state:paused" ></path>


<circle cx="0" cy="0" r="1.9994918777345254" fill="#66ba5d" transform="translate(950.8536376953125 180.61093139648438)" style="animation-play-state:paused" ></circle>
<path id="path8" d="M 2061.2416658969887 438.55142611742434
c 0 25.83590271369953 -6.321550663990309 7.420950779466886 -13.742501443457195 7.420950779466886
S 2033.7566630100741 464.38732883112385 2033.7566630100741 438.55142611742434
s 6.321550663990309 -7.420950779466886 13.742501443457195 -7.420950779466886
S 2061.2416658969887 412.71552340372483 2061.2416658969887 438.55142611742434
z" fill="none" stroke="none" style="animation-play-state:paused" ></path>


<circle cx="0" cy="0" r="2.341532950933" fill="#9df871" transform="translate(2050.56396484375 430.2044372558594)" style="animation-play-state:paused" ></circle>
<path id="path9" d="M 1043.2816811826874 373.0861540669926
c 0 35.15584005675156 -8.601960864949849 10.097954058854171 -18.69991492380402 10.097954058854171
S 1005.8818513350793 408.2419941237442 1005.8818513350793 373.0861540669926
s 8.601960864949849 -10.097954058854171 18.69991492380402 -10.097954058854171
S 1043.2816811826874 337.93031401024103 1043.2816811826874 373.0861540669926
z" fill="none" stroke="none" style="animation-play-state:paused" ></path>


<circle cx="0" cy="0" r="2.5390190568788005" fill="#51cacc" transform="translate(1013.9586791992188 389.4858093261719)" style="animation-play-state:paused" ></circle>
<path id="path10" d="M 275.3617876821022 286.2688193766243
c 0 30.130638668641524 -7.372390312539947 8.654545149503416 -16.02693546204336 8.654545149503416
S 243.3079167580155 316.3994580452659 243.3079167580155 286.2688193766243
s 7.372390312539947 -8.654545149503416 16.02693546204336 -8.654545149503416
S 275.3617876821022 256.13818070798277 275.3617876821022 286.2688193766243
z" fill="none" stroke="none" style="animation-play-state:paused" ></path>


<circle cx="0" cy="0" r="1.6629802516788574" fill="#9df871" transform="translate(272.55853271484375 270.2844543457031)" style="animation-play-state:paused" ></circle>
<path id="path11" d="M 1128.3387566991817 83.41170193157762
c 0 28.6772191842307 -7.016766396141554 8.237073595470521 -15.253839991612075 8.237073595470521
S 1097.8310767159576 112.08892111580832 1097.8310767159576 83.41170193157762
s 7.016766396141554 -8.237073595470521 15.253839991612075 -8.237073595470521
S 1128.3387566991817 54.734482747346924 1128.3387566991817 83.41170193157762
z" fill="none" stroke="none" style="animation-play-state:paused" ></path>


<circle cx="0" cy="0" r="2.447549091897921" fill="#9df871" transform="translate(1102.53857421875 68.63591766357422)" style="animation-play-state:paused" ></circle>
<path id="path12" d="M 2054.9300922870207 353.67790295908577
c 0 23.226235190915922 -5.68301499352198 6.671365427177977 -12.354380420699957 6.671365427177977
S 2030.2213314456208 376.9041381500017 2030.2213314456208 353.67790295908577
s 5.68301499352198 -6.671365427177977 12.354380420699957 -6.671365427177977
S 2054.9300922870207 330.45166776816984 2054.9300922870207 353.67790295908577
z" fill="none" stroke="none" style="animation-play-state:paused" ></path>


<circle cx="0" cy="0" r="1.9500892477170437" fill="#e0ff77" transform="translate(2046.712158203125 362.0982971191406)" style="animation-play-state:paused" ></circle>
<path id="path13" d="M 813.8428018072877 558.7136442938573
c 0 25.624648014309724 -6.269860684352378 7.360271238152793 -13.630131922505171 7.360271238152793
S 786.5825379622775 584.3382923081671 786.5825379622775 558.7136442938573
s 6.269860684352378 -7.360271238152793 13.630131922505171 -7.360271238152793
S 813.8428018072877 533.0889962795476 813.8428018072877 558.7136442938573
z" fill="none" stroke="none" style="animation-play-state:paused" ></path>


<circle cx="0" cy="0" r="1.830440549057383" fill="#e0ff77" transform="translate(787.12890625 568.453125)" style="animation-play-state:paused" ></circle>
<path id="path14" d="M 223.7489953429469 85.55101528336571
c 0 29.15921080128422 -7.13470051520784 8.375517996113553 -15.510218511321394 8.375517996113553
S 192.7285583203041 114.71022608464993 192.7285583203041 85.55101528336571
s 7.13470051520784 -8.375517996113553 15.510218511321394 -8.375517996113553
S 223.7489953429469 56.3918044820815 223.7489953429469 85.55101528336571
z" fill="none" stroke="none" style="animation-play-state:paused" ></path>


<circle cx="0" cy="0" r="2.712309832843072" fill="#66ba5d" transform="translate(221.90220642089844 100.33182525634766)" style="animation-play-state:paused" ></circle>
<path id="path15" d="M 597.81893893175 287.6340861396911
c 0 28.870955066203038 -7.064169856624146 8.292721136037043 -15.356890992661189 8.292721136037043
S 567.1051569464277 316.50504120589414 567.1051569464277 287.6340861396911
s 7.064169856624146 -8.292721136037043 15.356890992661189 -8.292721136037043
S 597.81893893175 258.763131073488 597.81893893175 287.6340861396911
z" fill="none" stroke="none" style="animation-play-state:paused" ></path>


<circle cx="0" cy="0" r="1.7941913693659575" fill="#9df871" transform="translate(597.7991333007812 290.14459228515625)" style="animation-play-state:paused" ></circle>
<path id="path16" d="M 750.9738343359531 38.42605513822808
c 0 19.73487218610116 -4.828745322131135 5.668527117284376 -10.49727243941551 5.668527117284376
S 729.9792894571221 58.160927324329236 729.9792894571221 38.42605513822808
s 4.828745322131135 -5.668527117284376 10.49727243941551 -5.668527117284376
S 750.9738343359531 18.69118295212692 750.9738343359531 38.42605513822808
z" fill="none" stroke="none" style="animation-play-state:paused" ></path>


<circle cx="0" cy="0" r="2.1681782599899706" fill="#9df871" transform="translate(750.0225219726562 28.948644638061523)" style="animation-play-state:paused" ></circle>
<path id="path17" d="M 1588.2927543752444 242.21515783892093
c 0 31.32611364045865 -7.6649001460696695 8.997926258429613 -16.66282640449928 8.997926258429613
S 1554.9671015662457 273.5412714793796 1554.9671015662457 242.21515783892093
s 7.6649001460696695 -8.997926258429613 16.66282640449928 -8.997926258429613
S 1588.2927543752444 210.88904419846227 1588.2927543752444 242.21515783892093
z" fill="none" stroke="none" style="animation-play-state:paused" ></path>


<circle cx="0" cy="0" r="1.8905623523016413" fill="#9df871" transform="translate(1585.9755859375 258.46734619140625)" style="animation-play-state:paused" ></circle>
<path id="path18" d="M 2051.7958474632314 517.0405852316164
c 0 30.491810413261415 -7.460762122393749 8.758285969766577 -16.219048092160328 8.758285969766577
S 2019.3577512789109 547.5323956448779 2019.3577512789109 517.0405852316164
s 7.460762122393749 -8.758285969766577 16.219048092160328 -8.758285969766577
S 2051.7958474632314 486.548774818355 2051.7958474632314 517.0405852316164
z" fill="none" stroke="none" style="animation-play-state:paused" ></path>


<circle cx="0" cy="0" r="2.9567536740463383" fill="#e0ff77" transform="translate(2022.0872802734375 533.1737670898438)" style="animation-play-state:paused" ></circle>
<path id="path19" d="M 287.8564027179144 200.7114575817821
c 0 37.53215844286174 -9.183400470061915 10.780513595290076 -19.96391406535199 10.780513595290076
S 247.92857458721042 238.24361602464384 247.92857458721042 200.7114575817821
s 9.183400470061915 -10.780513595290076 19.96391406535199 -10.780513595290076
S 287.8564027179144 163.17929913892036 287.8564027179144 200.7114575817821
z" fill="none" stroke="none" style="animation-play-state:paused" ></path>


<circle cx="0" cy="0" r="1.7116902754665029" fill="#51cacc" transform="translate(268.6366882324219 211.53369140625)" style="animation-play-state:paused" ></circle>
<path id="path20" d="M 2085.0231315476276 36.18342579243696
c 0 22.968385744325875 -5.61992417148399 6.5973022882638155 -12.217226459747806 6.5973022882638155
S 2060.5886786281317 59.151811536762835 2060.5886786281317 36.18342579243696
s 5.61992417148399 -6.5973022882638155 12.217226459747806 -6.5973022882638155
S 2085.0231315476276 13.215040048111081 2085.0231315476276 36.18342579243696
z" fill="none" stroke="none" style="animation-play-state:paused" ></path>


<circle cx="0" cy="0" r="1.9843381947760643" fill="#51cacc" transform="translate(2073.94775390625 29.430517196655273)" style="animation-play-state:paused" ></circle>
<path id="path21" d="M 2207.2285849799227 360.88495604539065
c 0 36.99641910772604 -9.05231531359254 10.62663102030429 -19.67894633389683 10.62663102030429
S 2167.870692312129 397.88137515311666 2167.870692312129 360.88495604539065
s 9.05231531359254 -10.62663102030429 19.67894633389683 -10.62663102030429
S 2207.2285849799227 323.88853693766464 2207.2285849799227 360.88495604539065
z" fill="none" stroke="none" style="animation-play-state:paused" ></path>


<circle cx="0" cy="0" r="1.7413208879505" fill="#9df871" transform="translate(2207.171142578125 365.6156311035156)" style="animation-play-state:paused" ></circle>
<path id="path22" d="M 1817.9053296601228 309.6178346960353
c 0 32.07625766702263 -7.848446024909792 9.213393159676713 -17.061839184586503 9.213393159676713
S 1783.7816512909499 341.6940923630579 1783.7816512909499 309.6178346960353
s 7.848446024909792 -9.213393159676713 17.061839184586503 -9.213393159676713
S 1817.9053296601228 277.54157702901267 1817.9053296601228 309.6178346960353
z" fill="none" stroke="none" style="animation-play-state:paused" ></path>


<circle cx="0" cy="0" r="2.927903360322346" fill="#9df871" transform="translate(1817.4283447265625 320.3526306152344)" style="animation-play-state:paused" ></circle>
<path id="path23" d="M 85.12663546193134 277.7877716689443
c 0 20.499773611135232 -5.015902053788407 5.8882328457516095 -10.904134899540017 5.8882328457516095
S 63.31836566285131 298.28754528007954 63.31836566285131 277.7877716689443
s 5.015902053788407 -5.8882328457516095 10.904134899540017 -5.8882328457516095
S 85.12663546193134 257.28799805780903 85.12663546193134 277.7877716689443
z" fill="none" stroke="none" style="animation-play-state:paused" ></path>


<circle cx="0" cy="0" r="2.2508122660967933" fill="#9df871" transform="translate(85.12561798095703 277.2967224121094)" style="animation-play-state:paused" ></circle>
<path id="path24" d="M 1660.3514053571207 292.15344462105406
c 0 24.210966074118293 -5.923959784092774 6.95421365958717 -12.878173443679943 6.95421365958717
S 1634.5950584697607 316.36441069517235 1634.5950584697607 292.15344462105406
s 5.923959784092774 -6.95421365958717 12.878173443679943 -6.95421365958717
S 1660.3514053571207 267.9424785469358 1660.3514053571207 292.15344462105406
z" fill="none" stroke="none" style="animation-play-state:paused" ></path>


<circle cx="0" cy="0" r="2.1346190137946572" fill="#51cacc" transform="translate(1642.0062255859375 282.4502868652344)" style="animation-play-state:paused" ></circle>
<path id="path25" d="M 1928.3891593307922 114.15255528263886
c 0 29.11514736492694 -7.123919036099144 8.362861477159866 -15.48678051325901 8.362861477159866
S 1897.4155983042742 143.26770264756578 1897.4155983042742 114.15255528263886
s 7.123919036099144 -8.362861477159866 15.48678051325901 -8.362861477159866
S 1928.3891593307922 85.03740791771192 1928.3891593307922 114.15255528263886
z" fill="none" stroke="none" style="animation-play-state:paused" ></path>


<circle cx="0" cy="0" r="1.9349250379369316" fill="#e0ff77" transform="translate(1926.7235107421875 128.6428680419922)" style="animation-play-state:paused" ></circle>
<path id="path26" d="M 1435.8562683434966 558.8461237034513
c 0 23.861675676489572 -5.838495112332554 6.85388556665126 -12.692380678983815 6.85388556665126
S 1410.4715069855288 582.7077993799409 1410.4715069855288 558.8461237034513
s 5.838495112332554 -6.85388556665126 12.692380678983815 -6.85388556665126
S 1435.8562683434966 534.9844480269618 1435.8562683434966 558.8461237034513
z" fill="none" stroke="none" style="animation-play-state:paused" ></path>


<circle cx="0" cy="0" r="1.6478045695955212" fill="#9df871" transform="translate(1410.4840087890625 560.6011352539062)" style="animation-play-state:paused" ></circle>
<path id="path27" d="M 798.3620695746446 160.2621927884913
c 0 24.391482020010674 -5.968128579364313 7.006063984471152 -12.974192563835466 7.006063984471152
S 772.4136844469737 184.65367480850196 772.4136844469737 160.2621927884913
s 5.968128579364313 -7.006063984471152 12.974192563835466 -7.006063984471152
S 798.3620695746446 135.87071076848062 798.3620695746446 160.2621927884913
z" fill="none" stroke="none" style="animation-play-state:paused" ></path>


<circle cx="0" cy="0" r="1.5653505785311537" fill="#9df871" transform="translate(774.310302734375 147.52943420410156)" style="animation-play-state:paused" ></circle>
<path id="path28" d="M 1409.5306152219616 160.0066832025515
c 0 26.4753479499317 -6.478010668600309 7.604621219661232 -14.082631888261542 7.604621219661232
S 1381.3653514454384 186.4820311524832 1381.3653514454384 160.0066832025515
s 6.478010668600309 -7.604621219661232 14.082631888261542 -7.604621219661232
S 1409.5306152219616 133.5313352526198 1409.5306152219616 160.0066832025515
z" fill="none" stroke="none" style="animation-play-state:paused" ></path>


<circle cx="0" cy="0" r="1.8529279354688728" fill="#51cacc" transform="translate(1381.652587890625 152.14488220214844)" style="animation-play-state:paused" ></circle>
<path id="path29" d="M 1638.325050219746 104.09504891553408
c 0 30.716901389266738 -7.51583757396952 8.822939760746829 -16.33877733471635 8.822939760746829
S 1605.6474955503134 134.8119503048008 1605.6474955503134 104.09504891553408
s 7.51583757396952 -8.822939760746829 16.33877733471635 -8.822939760746829
S 1638.325050219746 73.37814752626734 1638.325050219746 104.09504891553408
z" fill="none" stroke="none" style="animation-play-state:paused" ></path>


<circle cx="0" cy="0" r="1.6461618527585853" fill="#9df871" transform="translate(1617.0479736328125 93.34648132324219)" style="animation-play-state:paused" ></circle>
<path id="path30" d="M 1584.00513811862 322.90838223266854
c 0 24.984016067423205 -6.113110314369507 7.176259934259857 -13.289370248629364 7.176259934259857
S 1557.426397621361 347.89239830009177 1557.426397621361 322.90838223266854
s 6.113110314369507 -7.176259934259857 13.289370248629364 -7.176259934259857
S 1584.00513811862 297.9243661652453 1584.00513811862 322.90838223266854
z" fill="none" stroke="none" style="animation-play-state:paused" ></path>


<circle cx="0" cy="0" r="1.6158420070000044" fill="#51cacc" transform="translate(1557.473388671875 319.42144775390625)" style="animation-play-state:paused" ></circle>
<path id="path31" d="M 668.6829605281899 209.09077768313503
c 0 37.462243005842495 -9.166293501429546 10.760431501678164 -19.92672500310771 10.760431501678164
S 628.8295105219746 246.55302068897754 628.8295105219746 209.09077768313503
s 9.166293501429546 -10.760431501678164 19.92672500310771 -10.760431501678164
S 668.6829605281899 171.62853467729252 668.6829605281899 209.09077768313503
z" fill="none" stroke="none" style="animation-play-state:paused" ></path>


<circle cx="0" cy="0" r="2.914629530510857" fill="#9df871" transform="translate(640.1143798828125 224.25946044921875)" style="animation-play-state:paused" ></circle>
<path id="path32" d="M 119.45391854333756 360.8487593926297
c 0 19.11699173094407 -4.677561806507591 5.491050816334999 -10.16861262284259 5.491050816334999
S 99.11669329765239 379.96575112357374 99.11669329765239 360.8487593926297
s 4.677561806507591 -5.491050816334999 10.16861262284259 -5.491050816334999
S 119.45391854333756 341.73176766168564 119.45391854333756 360.8487593926297
z" fill="none" stroke="none" style="animation-play-state:paused" ></path>


<circle cx="0" cy="0" r="2.923953076101263" fill="#9df871" transform="translate(114.57845306396484 352.3451843261719)" style="animation-play-state:paused" ></circle>
<path id="path33" d="M 565.3176722362662 464.9225676561073
c 0 32.33180149648135 -7.91097270658586 9.286794046861663 -17.197766753447524 9.286794046861663
S 530.9221387293712 497.25436915258865 530.9221387293712 464.9225676561073
s 7.91097270658586 -9.286794046861663 17.197766753447524 -9.286794046861663
S 565.3176722362662 432.5907661596259 565.3176722362662 464.9225676561073
z" fill="none" stroke="none" style="animation-play-state:paused" ></path>


<circle cx="0" cy="0" r="2.3297593937335574" fill="#51cacc" transform="translate(556.9180908203125 450.67431640625)" style="animation-play-state:paused" ></circle>
<path id="path34" d="M 1865.5788425128935 498.1063909240368
c 0 28.609443198620156 -7.000182910300675 8.217606025135577 -15.217788935436252 8.217606025135577
S 1835.1432646420212 526.7158341226569 1835.1432646420212 498.1063909240368
s 7.000182910300675 -8.217606025135577 15.217788935436252 -8.217606025135577
S 1865.5788425128935 469.49694772541665 1865.5788425128935 498.1063909240368
z" fill="none" stroke="none" style="animation-play-state:paused" ></path>


<circle cx="0" cy="0" r="2.9631262939441596" fill="#9df871" transform="translate(1838.1156005859375 482.8565979003906)" style="animation-play-state:paused" ></circle>
<path id="path35" d="M 1664.689840677473 483.7177110196574
c 0 27.870051155147046 -6.81926783583385 8.00522745945713 -14.82449529529098 8.00522745945713
S 1635.0408500868912 511.5877621748044 1635.0408500868912 483.7177110196574
s 6.81926783583385 -8.00522745945713 14.82449529529098 -8.00522745945713
S 1664.689840677473 455.8476598645103 1664.689840677473 483.7177110196574
z" fill="none" stroke="none" style="animation-play-state:paused" ></path>


<circle cx="0" cy="0" r="2.6926782044702273" fill="#9df871" transform="translate(1648.1785888671875 475.4356689453125)" style="animation-play-state:paused" ></circle>
<path id="path36" d="M 2043.2683660458367 319.0916476839373
c 0 23.172923053833333 -5.669970534448582 6.6560523665265965 -12.326022900975177 6.6560523665265965
S 2018.6163202438863 342.26457073777067 2018.6163202438863 319.0916476839373
s 5.669970534448582 -6.6560523665265965 12.326022900975177 -6.6560523665265965
S 2043.2683660458367 295.91872463010395 2043.2683660458367 319.0916476839373
z" fill="none" stroke="none" style="animation-play-state:paused" ></path>


<circle cx="0" cy="0" r="2.857358090801305" fill="#66ba5d" transform="translate(2027.425048828125 311.12646484375)" style="animation-play-state:paused" ></circle>
<path id="path37" d="M 1821.5784745896146 427.72485852312
c 0 27.330257814368103 -6.687190741813471 7.850180436041902 -14.537371177855373 7.850180436041902
S 1792.5037322339037 455.05511633748813 1792.5037322339037 427.72485852312
s 6.687190741813471 -7.850180436041902 14.537371177855373 -7.850180436041902
S 1821.5784745896146 400.3946007087519 1821.5784745896146 427.72485852312
z" fill="none" stroke="none" style="animation-play-state:paused" ></path>


<circle cx="0" cy="0" r="2.056811129208963" fill="#9df871" transform="translate(1793.2591552734375 416.42919921875)" style="animation-play-state:paused" ></circle>
<path id="path38" d="M 173.56733208601935 224.3889486025354
c 0 24.707422124236196 -6.0454330729514085 7.096812737812524 -13.142245810763933 7.096812737812524
S 147.28284046449147 249.0963707267716 147.28284046449147 224.3889486025354
s 6.0454330729514085 -7.096812737812524 13.142245810763933 -7.096812737812524
S 173.56733208601935 199.68152647829922 173.56733208601935 224.3889486025354
z" fill="none" stroke="none" style="animation-play-state:paused" ></path>


<circle cx="0" cy="0" r="2.9491232778659744" fill="#66ba5d" transform="translate(147.36105346679688 228.75340270996094)" style="animation-play-state:paused" ></circle>
<path id="path39" d="M 671.0671376685506 271.6504731735401
c 0 19.137675218808333 -4.682622659921187 5.496991818168351 -10.179614478089539 5.496991818168351
S 650.7079087123715 290.78814839234843 650.7079087123715 271.6504731735401
s 4.682622659921187 -5.496991818168351 10.179614478089539 -5.496991818168351
S 671.0671376685506 252.51279795473175 671.0671376685506 271.6504731735401
z" fill="none" stroke="none" style="animation-play-state:paused" ></path>


<circle cx="0" cy="0" r="2.2019632172591384" fill="#e0ff77" transform="translate(670.5889282226562 279.3149719238281)" style="animation-play-state:paused" ></circle>
<path id="path40" d="M 1449.8346346064793 11.84781650829153
c 0 22.424159124056942 -5.486762338864996 6.44098187605891 -11.927744214923905 6.44098187605891
S 1425.9791461766315 34.27197563234847 1425.9791461766315 11.84781650829153
s 5.486762338864996 -6.44098187605891 11.927744214923905 -6.44098187605891
S 1449.8346346064793 -10.576342615765412 1449.8346346064793 11.84781650829153
z" fill="none" stroke="none" style="animation-play-state:paused" ></path>


<circle cx="0" cy="0" r="1.6803931391663722" fill="#9df871" transform="translate(1426.7484130859375 1.9706287384033203)" style="animation-play-state:paused" ></circle>
<path id="path41" d="M 2236.552648229136 240.26736154732495
c 0 24.47064358407873 -5.987497898232029 7.028801880533252 -13.016299778765282 7.028801880533252
S 2210.5200486716058 264.73800513140367 2210.5200486716058 240.26736154732495
s 5.987497898232029 -7.028801880533252 13.016299778765282 -7.028801880533252
S 2236.552648229136 215.79671796324624 2236.552648229136 240.26736154732495
z" fill="none" stroke="none" style="animation-play-state:paused" ></path>


<circle cx="0" cy="0" r="2.053865036740549" fill="#e0ff77" transform="translate(2210.523193359375 241.08624267578125)" style="animation-play-state:paused" ></circle>
<path id="path42" d="M 2242.5368035183765 539.5880590406427
c 0 34.61366260612441 -8.46930042490278 9.942222237929352 -18.41152266283213 9.942222237929352
S 2205.713758192712 574.2017216467672 2205.713758192712 539.5880590406427
s 8.46930042490278 -9.942222237929352 18.41152266283213 -9.942222237929352
S 2242.5368035183765 504.9743964345183 2242.5368035183765 539.5880590406427
z" fill="none" stroke="none" style="animation-play-state:paused" ></path>


<circle cx="0" cy="0" r="1.5235887033056834" fill="#e0ff77" transform="translate(2241.15283203125 555.4773559570312)" style="animation-play-state:paused" ></circle>
<path id="path43" d="M 945.8617546405832 32.43867504960004
c 0 31.326781765193296 -7.665063623398359 8.998118166598074 -16.663181789996433 8.998118166598074
S 912.5353910605903 63.76545681479334 912.5353910605903 32.43867504960004
s 7.665063623398359 -8.998118166598074 16.663181789996433 -8.998118166598074
S 945.8617546405832 1.1118932844067473 945.8617546405832 32.43867504960004
z" fill="none" stroke="none" style="animation-play-state:paused" ></path>


<circle cx="0" cy="0" r="2.7325884834829273" fill="#e0ff77" transform="translate(935.283203125 20.692569732666016)" style="animation-play-state:paused" ></circle>
<path id="path44" d="M 708.6068936129433 467.68988411186416
c 0 22.697385123556593 -5.553615508955335 6.5194616844258295 -12.073077193381165 6.5194616844258295
S 684.4607392261809 490.3872692354208 684.4607392261809 467.68988411186416
s 5.553615508955335 -6.5194616844258295 12.073077193381165 -6.5194616844258295
S 708.6068936129433 444.99249898830755 708.6068936129433 467.68988411186416
z" fill="none" stroke="none" style="animation-play-state:paused" ></path>


<circle cx="0" cy="0" r="1.919561423338176" fill="#e0ff77" transform="translate(684.7944946289062 460.1258239746094)" style="animation-play-state:paused" ></circle>
<path id="path45" d="M 87.72254133118878 242.0521291844755
c 0 34.908381133527 -8.541412405011926 10.026875431970522 -18.568287836982446 10.026875431970522
S 50.58596565722388 276.9605103180025 50.58596565722388 242.0521291844755
s 8.541412405011926 -10.026875431970522 18.568287836982446 -10.026875431970522
S 87.72254133118878 207.1437480509485 87.72254133118878 242.0521291844755
z" fill="none" stroke="none" style="animation-play-state:paused" ></path>


<circle cx="0" cy="0" r="2.277999249043329" fill="#9df871" transform="translate(69.09601593017578 252.07928466796875)" style="animation-play-state:paused" ></circle>
<path id="path46" d="M 684.6991432859835 355.0080408804985
c 0 19.252899007493497 -4.710815714599472 5.530088012790686 -10.240903727390158 5.530088012790686
S 664.2173358312033 374.26093988799204 664.2173358312033 355.0080408804985
s 4.710815714599472 -5.530088012790686 10.240903727390158 -5.530088012790686
S 684.6991432859835 335.755141873005 684.6991432859835 355.0080408804985
z" fill="none" stroke="none" style="animation-play-state:paused" ></path>


<circle cx="0" cy="0" r="2.0034466757131915" fill="#e0ff77" transform="translate(678.7667236328125 347.3244934082031)" style="animation-play-state:paused" ></circle>
<path id="path47" d="M 501.4970738146227 112.32733828345353
c 0 26.45175316685531 -6.4722374769965105 7.597843994735035 -14.070081471731546 7.597843994735035
S 473.3569108711596 138.77909145030884 473.3569108711596 112.32733828345353
s 6.4722374769965105 -7.597843994735035 14.070081471731546 -7.597843994735035
S 501.4970738146227 85.87558511659822 501.4970738146227 112.32733828345353
z" fill="none" stroke="none" style="animation-play-state:paused" ></path>


<circle cx="0" cy="0" r="2.569091996680688" fill="#e0ff77" transform="translate(491.9803771972656 102.85466003417969)" style="animation-play-state:paused" ></circle>
<path id="path48" d="M 596.2990108505758 557.418500919501
c 0 30.688878090925634 -7.508980809481804 8.81489051547864 -16.323871324960443 8.81489051547864
S 563.6512682006548 588.1073790104266 563.6512682006548 557.418500919501
s 7.508980809481804 -8.81489051547864 16.323871324960443 -8.81489051547864
S 596.2990108505758 526.7296228285753 596.2990108505758 557.418500919501
z" fill="none" stroke="none" style="animation-play-state:paused" ></path>


<circle cx="0" cy="0" r="1.7925285478775579" fill="#9df871" transform="translate(568.7630004882812 541.6504516601562)" style="animation-play-state:paused" ></circle>
<path id="path49" d="M 1889.0107242413437 93.40060517432676
c 0 21.60652161914829 -5.28670209830224 6.206128550180892 -11.492830648483132 6.206128550180892
S 1866.0250629443776 115.00712679347504 1866.0250629443776 93.40060517432676
s 5.28670209830224 -6.206128550180892 11.492830648483132 -6.206128550180892
S 1889.0107242413437 71.79408355517847 1889.0107242413437 93.40060517432676
z" fill="none" stroke="none" style="animation-play-state:paused" ></path>


<circle cx="0" cy="0" r="2.0167599766508286" fill="#66ba5d" transform="translate(1886.25146484375 81.92342376708984)" style="animation-play-state:paused" ></circle>
<path id="path50" d="M 1055.5204621877194 355.7594082228629
c 0 32.1303671772041 -7.861685585911641 9.22893525302671 -17.09062083893835 9.22893525302671
S 1021.3392205098428 387.889775400067 1021.3392205098428 355.7594082228629
s 7.861685585911641 -9.22893525302671 17.09062083893835 -9.22893525302671
S 1055.5204621877194 323.62904104565877 1055.5204621877194 355.7594082228629
z" fill="none" stroke="none" style="animation-play-state:paused" ></path>


<circle cx="0" cy="0" r="2.768558996201877" fill="#66ba5d" transform="translate(1021.37060546875 352.462890625)" style="animation-play-state:paused" ></circle>
<path id="path51" d="M 2192.3750400421277 505.13934357314776
c 0 31.622278193986467 -7.737365941081794 9.08299480040037 -16.820360741482162 9.08299480040037
S 2158.7343185591635 536.7616217671342 2158.7343185591635 505.13934357314776
s 7.737365941081794 -9.08299480040037 16.820360741482162 -9.08299480040037
S 2192.3750400421277 473.5170653791613 2192.3750400421277 505.13934357314776
z" fill="none" stroke="none" style="animation-play-state:paused" ></path>


<circle cx="0" cy="0" r="1.7271808673033409" fill="#51cacc" transform="translate(2181.919677734375 493.10455322265625)" style="animation-play-state:paused" ></circle>
<path id="path52" d="M 1862.7627559159714 55.97388691958127
c 0 34.06341814969082 -8.334666143009454 9.784173298315448 -18.1188394413249 9.784173298315448
S 1826.5250770333214 90.0373050692721 1826.5250770333214 55.97388691958127
s 8.334666143009454 -9.784173298315448 18.1188394413249 -9.784173298315448
S 1862.7627559159714 21.91046876989045 1862.7627559159714 55.97388691958127
z" fill="none" stroke="none" style="animation-play-state:paused" ></path>


<circle cx="0" cy="0" r="1.8930161814249666" fill="#66ba5d" transform="translate(1861.32861328125 71.81521606445312)" style="animation-play-state:paused" ></circle>
<path id="path53" d="M 1335.409102929897 202.17292851326164
c 0 35.40554322727026 -8.663058449225701 10.169677309960607 -18.832735759186306 10.169677309960607
S 1297.7436314115243 237.57847174053188 1297.7436314115243 202.17292851326164
s 8.663058449225701 -10.169677309960607 18.832735759186306 -10.169677309960607
S 1335.409102929897 166.7673852859914 1335.409102929897 202.17292851326164
z" fill="none" stroke="none" style="animation-play-state:paused" ></path>


<circle cx="0" cy="0" r="2.8289659016020305" fill="#e0ff77" transform="translate(1300.9366455078125 220.91653442382812)" style="animation-play-state:paused" ></circle>
<path id="path54" d="M 1115.9412946488214 81.57295553385676
c 0 32.72665567653422 -8.00758596340731 9.400209609217278 -17.407795572624586 9.400209609217278
S 1081.1257035035724 114.29961121039098 1081.1257035035724 81.57295553385676
s 8.00758596340731 -9.400209609217278 17.407795572624586 -9.400209609217278
S 1115.9412946488214 48.846299857322535 1115.9412946488214 81.57295553385676
z" fill="none" stroke="none" style="animation-play-state:paused" ></path>


<circle cx="0" cy="0" r="1.8493283403104916" fill="#51cacc" transform="translate(1115.9349365234375 80.0411148071289)" style="animation-play-state:paused" ></circle>
<path id="path55" d="M 404.35253030194906 501.14604316053726
c 0 33.45850261961351 -8.186654896288411 9.610420965208137 -17.79707586149655 9.610420965208137
S 368.758378578956 534.6045457801508 368.758378578956 501.14604316053726
s 8.186654896288411 -9.610420965208137 17.79707586149655 -9.610420965208137
S 404.35253030194906 467.68754054092375 404.35253030194906 501.14604316053726
z" fill="none" stroke="none" style="animation-play-state:paused" ></path>


<circle cx="0" cy="0" r="2.4308436862636755" fill="#9df871" transform="translate(388.4283447265625 511.0421142578125)" style="animation-play-state:paused" ></circle>
<path id="path56" d="M 778.8519699777756 220.9161898375753
c 0 34.148103225236866 -8.355386959366466 9.808497734908462 -18.163884694274927 9.808497734908462
S 742.5242005892259 255.06429306281217 742.5242005892259 220.9161898375753
s 8.355386959366466 -9.808497734908462 18.163884694274927 -9.808497734908462
S 778.8519699777756 186.76808661233844 778.8519699777756 220.9161898375753
z" fill="none" stroke="none" style="animation-play-state:paused" ></path>


<circle cx="0" cy="0" r="2.8781580828415883" fill="#e0ff77" transform="translate(742.5310668945312 222.55381774902344)" style="animation-play-state:paused" ></circle>
<path id="path57" d="M 1902.9985423650533 170.1786857223284
c 0 19.24904135169579 -4.709871820095778 5.528979962721131 -10.238851782816909 5.528979962721131
S 1882.5208387994194 189.42772707402418 1882.5208387994194 170.1786857223284
s 4.709871820095778 -5.528979962721131 10.238851782816909 -5.528979962721131
S 1902.9985423650533 150.92964437063262 1902.9985423650533 170.1786857223284
z" fill="none" stroke="none" style="animation-play-state:paused" ></path>


<circle cx="0" cy="0" r="2.846918508751461" fill="#e0ff77" transform="translate(1902.83544921875 175.36256408691406)" style="animation-play-state:paused" ></circle>
<path id="path58" d="M 1602.8699156166174 458.2757341588737
c 0 35.04524635326796 -8.574900703459182 10.066187782321649 -18.64108848578083 10.066187782321649
S 1565.5877386450559 493.32098051214166 1565.5877386450559 458.2757341588737
s 8.574900703459182 -10.066187782321649 18.64108848578083 -10.066187782321649
S 1602.8699156166174 423.2304878056058 1602.8699156166174 458.2757341588737
z" fill="none" stroke="none" style="animation-play-state:paused" ></path>


<circle cx="0" cy="0" r="1.766337695039625" fill="#66ba5d" transform="translate(1577.1265869140625 471.6513671875)" style="animation-play-state:paused" ></circle>
<path id="path59" d="M 1244.9555836379348 427.7287667777263
c 0 34.14198542911562 -8.353890051804886 9.80674049559704 -18.160630547401926 9.80674049559704
S 1208.6343225431308 461.8707522068419 1208.6343225431308 427.7287667777263
s 8.353890051804886 -9.80674049559704 18.160630547401926 -9.80674049559704
S 1244.9555836379348 393.5867813486107 1244.9555836379348 427.7287667777263
z" fill="none" stroke="none" style="animation-play-state:paused" ></path>


<circle cx="0" cy="0" r="2.4643801260050773" fill="#e0ff77" transform="translate(1223.9205322265625 417.28192138671875)" style="animation-play-state:paused" ></circle>
<path id="path60" d="M 674.5626482056514 69.86225568170357
c 0 24.0540463400395 -5.885564530009663 6.909140970011345 -12.794705500021008 6.909140970011345
S 648.9732372056094 93.91630202174306 648.9732372056094 69.86225568170357
s 5.885564530009663 -6.909140970011345 12.794705500021008 -6.909140970011345
S 674.5626482056514 45.808209341664075 674.5626482056514 69.86225568170357
z" fill="none" stroke="none" style="animation-play-state:paused" ></path>


<circle cx="0" cy="0" r="2.5302119884892" fill="#9df871" transform="translate(674.2267456054688 77.7294692993164)" style="animation-play-state:paused" ></circle>
<path id="path61" d="M 1651.0702029288077 286.42922278603396
c 0 32.228045694762784 -7.8855856487185525 9.256991848495694 -17.142577497214248 9.256991848495694
S 1616.7850479343792 318.65726848079674 1616.7850479343792 286.42922278603396
s 7.8855856487185525 -9.256991848495694 17.142577497214248 -9.256991848495694
S 1651.0702029288077 254.20117709127118 1651.0702029288077 286.42922278603396
z" fill="none" stroke="none" style="animation-play-state:paused" ></path>


<circle cx="0" cy="0" r="2.5129953068112174" fill="#9df871" transform="translate(1636.5443115234375 296.2499694824219)" style="animation-play-state:paused" ></circle>
<path id="path62" d="M 817.047117687067 10.725844280555714
c 0 30.215698247034062 -7.393202762572163 8.678977156062976 -16.07217991863514 8.678977156062976
S 784.9027578497968 40.941542527589775 784.9027578497968 10.725844280555714
s 7.393202762572163 -8.678977156062976 16.07217991863514 -8.678977156062976
S 817.047117687067 -19.48985396647835 817.047117687067 10.725844280555714
z" fill="none" stroke="none" style="animation-play-state:paused" ></path>


<circle cx="0" cy="0" r="2.8797910058626472" fill="#9df871" transform="translate(784.914306640625 12.711182594299316)" style="animation-play-state:paused" ></circle>
<path id="path63" d="M 2022.357200235671 202.1155816504364
c 0 24.435523999022656 -5.9789048082715 7.018714340144806 -12.997619148416305 7.018714340144806
S 1996.3619619388382 226.55110564945906 1996.3619619388382 202.1155816504364
s 5.9789048082715 -7.018714340144806 12.997619148416305 -7.018714340144806
S 2022.357200235671 177.68005765141376 2022.357200235671 202.1155816504364
z" fill="none" stroke="none" style="animation-play-state:paused" ></path>


<circle cx="0" cy="0" r="2.1904842389326786" fill="#9df871" transform="translate(2012.5108642578125 194.07351684570312)" style="animation-play-state:paused" ></circle>
<path id="path64" d="M 2070.982255001892 136.53255081105416
c 0 24.041574812013582 -5.882512985918217 6.905558722599647 -12.788071708517863 6.905558722599647
S 2045.4061115848565 160.57412562306774 2045.4061115848565 136.53255081105416
s 5.882512985918217 -6.905558722599647 12.788071708517863 -6.905558722599647
S 2070.982255001892 112.49097599904059 2070.982255001892 136.53255081105416
z" fill="none" stroke="none" style="animation-play-state:paused" ></path>


<circle cx="0" cy="0" r="2.9444639772534242" fill="#9df871" transform="translate(2069.191162109375 124.04822540283203)" style="animation-play-state:paused" ></circle>
<path id="path65" d="M 335.26099515986897 93.42404137204568
c 0 33.502329009579974 -8.19737837468446 9.623009396368715 -17.820387771053177 9.623009396368715
S 299.62021961776264 126.92637038162565 299.62021961776264 93.42404137204568
s 8.19737837468446 -9.623009396368715 17.820387771053177 -9.623009396368715
S 335.26099515986897 59.921712362465705 335.26099515986897 93.42404137204568
z" fill="none" stroke="none" style="animation-play-state:paused" ></path>


<circle cx="0" cy="0" r="2.717444523979303" fill="#9df871" transform="translate(318.75152587890625 83.65885162353516)" style="animation-play-state:paused" ></circle>
<path id="path66" d="M 1765.5225424316316 347.2801273269055
c 0 20.63505624430202 -5.0490031236058135 5.9270906233633465 -10.976093746969159 5.9270906233633465
S 1743.5703549376933 367.9151835712075 1743.5703549376933 347.2801273269055
s 5.0490031236058135 -5.9270906233633465 10.976093746969159 -5.9270906233633465
S 1765.5225424316316 326.64507108260347 1765.5225424316316 347.2801273269055
z" fill="none" stroke="none" style="animation-play-state:paused" ></path>


<circle cx="0" cy="0" r="2.8494362714526575" fill="#51cacc" transform="translate(1764.3538818359375 337.03021240234375)" style="animation-play-state:paused" ></circle>
<path id="path67" d="M 1431.6695031082343 497.5963706866229
c 0 28.237135272728082 -6.909086290135594 8.110666514507002 -15.019752804642597 8.110666514507002
S 1401.629997498949 525.833505959351 1401.629997498949 497.5963706866229
s 6.909086290135594 -8.110666514507002 15.019752804642597 -8.110666514507002
S 1431.6695031082343 469.3592354138948 1431.6695031082343 497.5963706866229
z" fill="none" stroke="none" style="animation-play-state:paused" ></path>


<circle cx="0" cy="0" r="1.5741661451325766" fill="#e0ff77" transform="translate(1422.383056640625 508.3824157714844)" style="animation-play-state:paused" ></circle>
<path id="path68" d="M 347.48829162965734 534.3012113802679
c 0 21.276536037213262 -5.205960945275584 6.111345457497427 -11.31730640277301 6.111345457497427
S 324.85367882411134 555.5777474174812 324.85367882411134 534.3012113802679
s 5.205960945275584 -6.111345457497427 11.31730640277301 -6.111345457497427
S 347.48829162965734 513.0246753430546 347.48829162965734 534.3012113802679
z" fill="none" stroke="none" style="animation-play-state:paused" ></path>


<circle cx="0" cy="0" r="2.455712072920634" fill="#9df871" transform="translate(341.6858825683594 525.1637573242188)" style="animation-play-state:paused" ></circle>
<path id="path69" d="M 1651.2981851113866 148.38987162084962
c 0 31.599909972990393 -7.731892865731691 9.076569885858943 -16.808462751590632 9.076569885858943
S 1617.6812596082052 179.98978159384 1617.6812596082052 148.38987162084962
s 7.731892865731691 -9.076569885858943 16.808462751590632 -9.076569885858943
S 1651.2981851113866 116.78996164785923 1651.2981851113866 148.38987162084962
z" fill="none" stroke="none" style="animation-play-state:paused" ></path>


<circle cx="0" cy="0" r="2.9787588029271355" fill="#e0ff77" transform="translate(1624.186767578125 133.03213500976562)" style="animation-play-state:paused" ></circle>
<path id="path70" d="M 46.082285558047104 167.06446456037185
c 0 26.8811622151645 -6.577305648391313 7.721184891589804 -14.298490539981117 7.721184891589804
S 17.485304478084867 193.94562677553634 17.485304478084867 167.06446456037185
s 6.577305648391313 -7.721184891589804 14.298490539981117 -7.721184891589804
S 46.082285558047104 140.18330234520735 46.082285558047104 167.06446456037185
z" fill="none" stroke="none" style="animation-play-state:paused" ></path>


<circle cx="0" cy="0" r="1.9476180195723338" fill="#51cacc" transform="translate(28.2988338470459 175.92227172851562)" style="animation-play-state:paused" ></circle>
<path id="path71" d="M 813.6749769980108 348.50125731217616
c 0 19.23529916033638 -4.706509369018476 5.5250327375434285 -10.231542106561903 5.5250327375434285
S 793.2118927848869 367.7365564725125 793.2118927848869 348.50125731217616
s 4.706509369018476 -5.5250327375434285 10.231542106561903 -5.5250327375434285
S 813.6749769980108 329.2659581518398 813.6749769980108 348.50125731217616
z" fill="none" stroke="none" style="animation-play-state:paused" ></path>


<circle cx="0" cy="0" r="1.9418780582932411" fill="#9df871" transform="translate(807.6719970703125 356.1141357421875)" style="animation-play-state:paused" ></circle>
<path id="path72" d="M 1780.183927901273 148.82551873739448
c 0 32.47774784076777 -7.946682982315517 9.328714805326912 -17.27539778764243 9.328714805326912
S 1745.6331323259878 181.30326657816224 1745.6331323259878 148.82551873739448
s 7.946682982315517 -9.328714805326912 17.27539778764243 -9.328714805326912
S 1780.183927901273 116.34777089662671 1780.183927901273 148.82551873739448
z" fill="none" stroke="none" style="animation-play-state:paused" ></path>


<circle cx="0" cy="0" r="1.8021157269313504" fill="#e0ff77" transform="translate(1770.387451171875 161.96475219726562)" style="animation-play-state:paused" ></circle>
<path id="path73" d="M 1289.9122693284182 196.59150926204623
c 0 23.069570825892384 -5.6446822233566465 6.626366088288239 -12.271048311644886 6.626366088288239
S 1265.3701727051287 219.66108008793861 1265.3701727051287 196.59150926204623
s 5.6446822233566465 -6.626366088288239 12.271048311644886 -6.626366088288239
S 1289.9122693284182 173.52193843615385 1289.9122693284182 196.59150926204623
z" fill="none" stroke="none" style="animation-play-state:paused" ></path>


<circle cx="0" cy="0" r="1.9597019230013206" fill="#9df871" transform="translate(1265.6241455078125 189.6999053955078)" style="animation-play-state:paused" ></circle>
<path id="path74" d="M 1017.3951906741581 116.33899058948032
c 0 36.38628821098629 -8.903027966517921 10.451380656347126 -19.354408622865048 10.451380656347126
S 978.6863734284279 152.7252788004666 978.6863734284279 116.33899058948032
s 8.903027966517921 -10.451380656347126 19.354408622865048 -10.451380656347126
S 1017.3951906741581 79.95270237849402 1017.3951906741581 116.33899058948032
z" fill="none" stroke="none" style="animation-play-state:paused" ></path>


<circle cx="0" cy="0" r="2.0497716215999255" fill="#9df871" transform="translate(1017.3116455078125 110.77039337158203)" style="animation-play-state:paused" ></circle>
<path id="path75" d="M 121.32667151511002 260.27521975759095
c 0 28.04462093020238 -6.861981716964412 8.055369841653876 -14.917351558618288 8.055369841653876
S 91.49196839787344 288.3198406877933 91.49196839787344 260.27521975759095
s 6.861981716964412 -8.055369841653876 14.917351558618288 -8.055369841653876
S 121.32667151511002 232.23059882738858 121.32667151511002 260.27521975759095
z" fill="none" stroke="none" style="animation-play-state:paused" ></path>


<circle cx="0" cy="0" r="1.6338295923305988" fill="#9df871" transform="translate(98.91754150390625 272.5128173828125)" style="animation-play-state:paused" ></circle>
<path id="path76" d="M 382.22802861356683 492.58476064567844
c 0 22.07138666209101 -5.4004456726392895 6.339653615706992 -11.740099288346283 6.339653615706992
S 358.74783003687423 514.6561473077694 358.74783003687423 492.58476064567844
s 5.4004456726392895 -6.339653615706992 11.740099288346283 -6.339653615706992
S 382.22802861356683 470.5133739835874 382.22802861356683 492.58476064567844
z" fill="none" stroke="none" style="animation-play-state:paused" ></path>


<circle cx="0" cy="0" r="2.54659788388215" fill="#9df871" transform="translate(359.5089416503906 502.321533203125)" style="animation-play-state:paused" ></circle>
<path id="path77" d="M 1062.5220468932205 12.661348954261433
c 0 32.67245764377608 -7.994324742626061 9.384642089169725 -17.378966831795786 9.384642089169725
S 1027.7641132296287 45.33380659803751 1027.7641132296287 12.661348954261433
s 7.994324742626061 -9.384642089169725 17.378966831795786 -9.384642089169725
S 1062.5220468932205 -20.011108689514643 1062.5220468932205 12.661348954261433
z" fill="none" stroke="none" style="animation-play-state:paused" ></path>


<circle cx="0" cy="0" r="1.9295745889402833" fill="#e0ff77" transform="translate(1054.32177734375 27.309284210205078)" style="animation-play-state:paused" ></circle>
<path id="path78" d="M 24.96837191454637 129.9976008554085
c 0 29.961905264476062 -7.331104479605844 8.60607917171121 -15.937183651317053 8.60607917171121
S -6.905995388087735 159.95950611988457 -6.905995388087735 129.9976008554085
s 7.331104479605844 -8.60607917171121 15.937183651317053 -8.60607917171121
S 24.96837191454637 100.03569559093245 24.96837191454637 129.9976008554085
z" fill="none" stroke="none" style="animation-play-state:paused" ></path>


<circle cx="0" cy="0" r="2.050230942332055" fill="#e0ff77" transform="translate(3.5029101371765137 118.98979187011719)" style="animation-play-state:paused" ></circle>
<path id="path79" d="M 2078.437645890011 117.88790958599229
c 0 22.757983563563904 -5.568442786829466 6.536867619321548 -12.105310406151013 6.536867619321548
S 2054.2270250777087 140.6458931495562 2054.2270250777087 117.88790958599229
s 5.568442786829466 -6.536867619321548 12.105310406151013 -6.536867619321548
S 2078.437645890011 95.12992602242838 2078.437645890011 117.88790958599229
z" fill="none" stroke="none" style="animation-play-state:paused" ></path>


<circle cx="0" cy="0" r="2.682373140126507" fill="#e0ff77" transform="translate(2077.24072265625 129.02577209472656)" style="animation-play-state:paused" ></circle>
<path id="path80" d="M 602.4197151834807 397.8090784654708
c 0 30.920873892670198 -7.565745739695899 8.8815276074691 -16.447273347164998 8.8815276074691
S 569.5251684891506 428.729952358141 569.5251684891506 397.8090784654708
s 7.565745739695899 -8.8815276074691 16.447273347164998 -8.8815276074691
S 602.4197151834807 366.8882045728006 602.4197151834807 397.8090784654708
z" fill="none" stroke="none" style="animation-play-state:paused" ></path>


<circle cx="0" cy="0" r="2.2102840363915757" fill="#9df871" transform="translate(602.3574829101562 402.2583923339844)" style="animation-play-state:paused" ></circle>
<path id="path81" d="M 1822.5316114735672 472.4797901677774
c 0 33.27928286519815 -8.14280325425061 9.558942950642022 -17.701746204892633 9.558942950642022
S 1787.1281190637817 505.75907303297555 1787.1281190637817 472.4797901677774
s 8.14280325425061 -9.558942950642022 17.701746204892633 -9.558942950642022
S 1822.5316114735672 439.2005073025793 1822.5316114735672 472.4797901677774
z" fill="none" stroke="none" style="animation-play-state:paused" ></path>


<circle cx="0" cy="0" r="2.1807654993926535" fill="#66ba5d" transform="translate(1814.7105712890625 457.1038513183594)" style="animation-play-state:paused" ></circle>
<path id="path82" d="M 865.460459275553 347.5102143854099
c 0 37.159274321539485 -9.092162865908596 10.673408581718789 -19.765571447627387 10.673408581718789
S 825.9293163802982 384.6694887069494 825.9293163802982 347.5102143854099
s 9.092162865908596 -10.673408581718789 19.765571447627387 -10.673408581718789
S 865.460459275553 310.3509400638704 865.460459275553 347.5102143854099
z" fill="none" stroke="none" style="animation-play-state:paused" ></path>


<circle cx="0" cy="0" r="1.5442496825337444" fill="#66ba5d" transform="translate(851.971435546875 360.7294616699219)" style="animation-play-state:paused" ></circle>
<path id="path83" d="M 2128.005147259426 420.53542874329264
c 0 35.98837175671881 -8.805665429835454 10.337085504589448 -19.142750934424903 10.337085504589448
S 2089.7196453905763 456.5238005000115 2089.7196453905763 420.53542874329264
s 8.805665429835454 -10.337085504589448 19.142750934424903 -10.337085504589448
S 2128.005147259426 384.5470569865738 2128.005147259426 420.53542874329264
z" fill="none" stroke="none" style="animation-play-state:paused" ></path>


<circle cx="0" cy="0" r="2.7292569213921998" fill="#e0ff77" transform="translate(2121.7060546875 402.2371826171875)" style="animation-play-state:paused" ></circle>
<path id="path84" d="M 1953.0060833040002 434.49233238748934
c 0 21.728734067379545 -5.316605144146058 6.241232125736678 -11.557837269882736 6.241232125736678
S 1929.8904087642345 456.2210664548689 1929.8904087642345 434.49233238748934
s 5.316605144146058 -6.241232125736678 11.557837269882736 -6.241232125736678
S 1953.0060833040002 412.7635983201098 1953.0060833040002 434.49233238748934
z" fill="none" stroke="none" style="animation-play-state:paused" ></path>


<circle cx="0" cy="0" r="2.988571551217186" fill="#66ba5d" transform="translate(1936.640625 443.1180114746094)" style="animation-play-state:paused" ></circle>
<path id="path85" d="M 1826.573995312226 489.15950987599416
c 0 35.32653435747251 -8.643726491721996 10.14698327289104 -18.790709764613037 10.14698327289104
S 1788.9925757830001 524.4860442334667 1788.9925757830001 489.15950987599416
s 8.643726491721996 -10.14698327289104 18.790709764613037 -10.14698327289104
S 1826.573995312226 453.83297551852166 1826.573995312226 489.15950987599416
z" fill="none" stroke="none" style="animation-play-state:paused" ></path>


<circle cx="0" cy="0" r="1.588855479216333" fill="#9df871" transform="translate(1789.0185546875 492.33880615234375)" style="animation-play-state:paused" ></circle>
<path id="path86" d="M 1965.0842189073499 332.501944367272
c 0 19.23819818545965 -4.7072187049528935 5.525865436249049 -10.233084141201942 5.525865436249049
S 1944.618050624946 351.74014255273164 1944.618050624946 332.501944367272
s 4.7072187049528935 -5.525865436249049 10.233084141201942 -5.525865436249049
S 1965.0842189073499 313.2637461818124 1965.0842189073499 332.501944367272
z" fill="none" stroke="none" style="animation-play-state:paused" ></path>


<circle cx="0" cy="0" r="1.788395690335416" fill="#9df871" transform="translate(1964.779052734375 339.09552001953125)" style="animation-play-state:paused" ></circle>
<path id="path87" d="M 757.643742288388 451.8496524080178
c 0 23.129471014586354 -5.659338652505171 6.643571461636506 -12.302910114141676 6.643571461636506
S 733.0379220601046 474.9791234226041 733.0379220601046 451.8496524080178
s 5.659338652505171 -6.643571461636506 12.302910114141676 -6.643571461636506
S 757.643742288388 428.72018139343146 757.643742288388 451.8496524080178
z" fill="none" stroke="none" style="animation-play-state:paused" ></path>


<circle cx="0" cy="0" r="1.7221993966668554" fill="#9df871" transform="translate(733.0594482421875 449.53338623046875)" style="animation-play-state:paused" ></circle>
<path id="path88" d="M 2182.680765777973 246.33133262335636
c 0 29.41439187134361 -7.197138436605351 8.448814686449762 -15.645953123055111 8.448814686449762
S 2151.3888595318626 275.74572449469997 2151.3888595318626 246.33133262335636
s 7.197138436605351 -8.448814686449762 15.645953123055111 -8.448814686449762
S 2182.680765777973 216.91694075201275 2182.680765777973 246.33133262335636
z" fill="none" stroke="none" style="animation-play-state:paused" ></path>


<circle cx="0" cy="0" r="2.723701414023314" fill="#66ba5d" transform="translate(2164.245361328125 237.19017028808594)" style="animation-play-state:paused" ></circle>
<path id="path89" d="M 2137.3265731309007 218.82078627348284
c 0 33.50119952874367 -8.197102012352174 9.622684971022117 -17.81978698337429 9.622684971022117
S 2101.686999164152 252.3219858022265 2101.686999164152 218.82078627348284
s 8.197102012352174 -9.622684971022117 17.81978698337429 -9.622684971022117
S 2137.3265731309007 185.31958674473918 2137.3265731309007 218.82078627348284
z" fill="none" stroke="none" style="animation-play-state:paused" ></path>


<circle cx="0" cy="0" r="2.4935702965975506" fill="#66ba5d" transform="translate(2135.842041015625 203.0443572998047)" style="animation-play-state:paused" ></circle>
<path id="path90" d="M 38.69363799992301 347.70772052439605
c 0 35.32219140713641 -8.64266385493763 10.145735829709393 -18.788399684647025 10.145735829709393
S 1.116838630628962 383.02991193153247 1.116838630628962 347.70772052439605
s 8.64266385493763 -10.145735829709393 18.788399684647025 -10.145735829709393
S 38.69363799992301 312.38552911725964 38.69363799992301 347.70772052439605
z" fill="none" stroke="none" style="animation-play-state:paused" ></path>


<circle cx="0" cy="0" r="2.074015126772874" fill="#9df871" transform="translate(1.1212754249572754 349.00543212890625)" style="animation-play-state:paused" ></circle>
<path id="path91" d="M 820.6715702542534 494.7513338687923
c 0 29.910757743533328 -7.318589660651771 8.591387862504254 -15.909977523156025 8.591387862504254
S 788.8516152079413 524.6620916123256 788.8516152079413 494.7513338687923
s 7.318589660651771 -8.591387862504254 15.909977523156025 -8.591387862504254
S 820.6715702542534 464.84057612525896 820.6715702542534 494.7513338687923
z" fill="none" stroke="none" style="animation-play-state:paused" ></path>


<circle cx="0" cy="0" r="2.2597317703277318" fill="#9df871" transform="translate(793.8737182617188 510.0953674316406)" style="animation-play-state:paused" ></circle>
<path id="path92" d="M 802.7927871800625 47.48557141866689
c 0 29.443968855977847 -7.204375358377558 8.457310203312787 -15.661685561690344 8.457310203312787
S 771.4694160566819 76.92954027464474 771.4694160566819 47.48557141866689
s 7.204375358377558 -8.457310203312787 15.661685561690344 -8.457310203312787
S 802.7927871800625 18.041602562689047 802.7927871800625 47.48557141866689
z" fill="none" stroke="none" style="animation-play-state:paused" ></path>


<circle cx="0" cy="0" r="2.1202487276218243" fill="#9df871" transform="translate(792.4325561523438 36.767887115478516)" style="animation-play-state:paused" ></circle>
<path id="path93" d="M 1263.453035602177 346.48027889598393
c 0 36.221230023370104 -8.86264138869694 10.403970325861627 -19.266611714558564 10.403970325861627
S 1224.9198121730597 382.701508919354 1224.9198121730597 346.48027889598393
s 8.86264138869694 -10.403970325861627 19.266611714558564 -10.403970325861627
S 1263.453035602177 310.25904887261385 1263.453035602177 346.48027889598393
z" fill="none" stroke="none" style="animation-play-state:paused" ></path>


<circle cx="0" cy="0" r="2.438429385162899" fill="#9df871" transform="translate(1224.9940185546875 341.217041015625)" style="animation-play-state:paused" ></circle>
<path id="path94" d="M 1482.5697245025488 502.08952301968
c 0 27.39874760746106 -6.703948882676642 7.869853036185624 -14.573801918862266 7.869853036185624
S 1453.4221206648242 529.488270627141 1453.4221206648242 502.08952301968
s 6.703948882676642 -7.869853036185624 14.573801918862266 -7.869853036185624
S 1482.5697245025488 474.6907754122189 1482.5697245025488 502.08952301968
z" fill="none" stroke="none" style="animation-play-state:paused" ></path>


<circle cx="0" cy="0" r="2.405771302172778" fill="#9df871" transform="translate(1482.3480224609375 494.8553161621094)" style="animation-play-state:paused" ></circle>
<path id="path95" d="M 2055.51322650475 496.6706431673605
c 0 28.31767094192313 -6.928791826215233 8.133799100339623 -15.062590926554854 8.133799100339623
S 2025.3880446516405 524.9883141092836 2025.3880446516405 496.6706431673605
s 6.928791826215233 -8.133799100339623 15.062590926554854 -8.133799100339623
S 2055.51322650475 468.3529722254373 2055.51322650475 496.6706431673605
z" fill="none" stroke="none" style="animation-play-state:paused" ></path>


<circle cx="0" cy="0" r="1.5481086114740448" fill="#66ba5d" transform="translate(2025.3900146484375 497.18206787109375)" style="animation-play-state:paused" ></circle>
<path id="path96" d="M 1255.122815261491 324.5027387690674
c 0 37.486002078939514 -9.172106891655412 10.767255916291136 -19.939362807946548 10.767255916291136
S 1215.244089645598 361.9887408480069 1215.244089645598 324.5027387690674
s 9.172106891655412 -10.767255916291136 19.939362807946548 -10.767255916291136
S 1255.122815261491 287.01673669012786 1255.122815261491 324.5027387690674
z" fill="none" stroke="none" style="animation-play-state:paused" ></path>


<circle cx="0" cy="0" r="2.488839227498175" fill="#9df871" transform="translate(1215.731201171875 312.5738220214844)" style="animation-play-state:paused" ></circle>
<path id="path97" d="M 1353.495975228454 564.7517109265265
c 0 31.00474087807642 -7.586266385061251 8.905617060724078 -16.49188344578533 8.905617060724078
S 1320.5122083368833 595.7564518046029 1320.5122083368833 564.7517109265265
s 7.586266385061251 -8.905617060724078 16.49188344578533 -8.905617060724078
S 1353.495975228454 533.7469700484501 1353.495975228454 564.7517109265265
z" fill="none" stroke="none" style="animation-play-state:paused" ></path>


<circle cx="0" cy="0" r="2.190797601428672" fill="#66ba5d" transform="translate(1341.2193603515625 554.41455078125)" style="animation-play-state:paused" ></circle>
<path id="path98" d="M 2146.1399764432854 366.579000537534
c 0 37.27416525453533 -9.120274477173538 10.706409168855894 -19.826683646029434 10.706409168855894
S 2106.4866091512267 403.8531657920693 2106.4866091512267 366.579000537534
s 9.120274477173538 -10.706409168855894 19.826683646029434 -10.706409168855894
S 2146.1399764432854 329.3048352829987 2146.1399764432854 366.579000537534
z" fill="none" stroke="none" style="animation-play-state:paused" ></path>


<circle cx="0" cy="0" r="2.9328242025480327" fill="#9df871" transform="translate(2146.125732421875 368.89599609375)" style="animation-play-state:paused" ></circle>
<path id="path99" d="M 1925.9932050036562 223.24229108405993
c 0 23.06620279071171 -5.6438581296422266 6.625398673927832 -12.269256803570059 6.625398673927832
S 1901.4546913965162 246.30849387477164 1901.4546913965162 223.24229108405993
s 5.6438581296422266 -6.625398673927832 12.269256803570059 -6.625398673927832
S 1925.9932050036562 200.17608829334822 1925.9932050036562 223.24229108405993
z" fill="none" stroke="none" style="animation-play-state:paused" ></path>


<circle cx="0" cy="0" r="2.2956773378598605" fill="#9df871" transform="translate(1925.9093017578125 227.58056640625)" style="animation-play-state:paused" ></circle></g></svg>