<?xml version="1.0" encoding="utf-8"?>
<svg xmlns="http://www.w3.org/2000/svg" style="margin: auto; background: rgb(245, 245, 245); display: block; shape-rendering: auto;" width="183" height="28" preserveAspectRatio="xMidYMid">
<style type="text/css">
  text {
    text-anchor: middle; font-size: 24px; opacity: 0;
  }
</style>
<g style="transform-origin: 91.5px 14px; transform: scale(0.666667);">
<g transform="translate(91.5,14)">
  <g transform="translate(0,0)"><g class="path" style="transform: scale(0.91); transform-origin: -116.655px -1.88258px; animation: 0.8s linear -0.487385s infinite normal forwards running breath-ac4f77ad-a1d0-4342-ac37-ab9c3e5d1db0;"><path d="M26.17-6.87L26.17-6.87L26.17-6.87Q26.17-5.80 25.82-4.87L25.82-4.87L25.82-4.87Q25.47-3.94 24.86-3.17L24.86-3.17L24.86-3.17Q24.24-2.41 23.42-1.81L23.42-1.81L23.42-1.81Q22.61-1.21 21.67-0.81L21.67-0.81L21.67-0.81Q20.72-0.40 19.72-0.20L19.72-0.20L19.72-0.20Q18.72 0 17.75 0L17.75 0L2.87 0L2.87-25.31L16.47-25.31L16.47-25.31Q17.37-25.31 18.35-25.18L18.35-25.18L18.35-25.18Q19.34-25.05 20.28-24.77L20.28-24.77L20.28-24.77Q21.22-24.49 22.07-24.03L22.07-24.03L22.07-24.03Q22.92-23.57 23.56-22.91L23.56-22.91L23.56-22.91Q24.21-22.25 24.58-21.39L24.58-21.39L24.58-21.39Q24.96-20.53 24.96-19.42L24.96-19.42L24.96-19.42Q24.96-18.37 24.54-17.51L24.54-17.51L24.54-17.51Q24.12-16.65 23.41-15.97L23.41-15.97L23.41-15.97Q22.69-15.29 21.77-14.77L21.77-14.77L21.77-14.77Q20.85-14.26 19.83-13.87L19.83-13.87L19.83-13.87Q21.11-13.52 22.26-12.94L22.26-12.94L22.26-12.94Q23.41-12.36 24.28-11.51L24.28-11.51L24.28-11.51Q25.15-10.67 25.66-9.52L25.66-9.52L25.66-9.52Q26.17-8.37 26.17-6.87zM17.88-18.81L17.88-18.81L17.88-18.81Q17.88-20.95 16.74-21.94L16.74-21.94L16.74-21.94Q15.61-22.92 13.52-22.92L13.52-22.92L9.84-22.92L9.84-14.71L12.92-14.71L12.92-14.71Q13.87-14.71 14.77-14.95L14.77-14.95L14.77-14.95Q15.66-15.19 16.36-15.69L16.36-15.69L16.36-15.69Q17.05-16.19 17.46-16.96L17.46-16.96L17.46-16.96Q17.88-17.74 17.88-18.81zM19.11-7.31L19.11-7.31L19.11-7.31Q19.11-8.35 18.84-9.25L18.84-9.25L18.84-9.25Q18.58-10.16 18.04-10.82L18.04-10.82L18.04-10.82Q17.49-11.48 16.67-11.86L16.67-11.86L16.67-11.86Q15.86-12.23 14.75-12.23L14.75-12.23L9.84-12.23L9.84-2.46L14.13-2.46L14.13-2.46Q15.21-2.46 16.12-2.81L16.12-2.81L16.12-2.81Q17.03-3.16 17.70-3.80L17.70-3.80L17.70-3.80Q18.37-4.43 18.74-5.33L18.74-5.33L18.74-5.33Q19.11-6.22 19.11-7.31" fill="#66ba5d" stroke="none" stroke-width="none" transform="translate(-131.17498779296875,10.772416240985581)" style="fill: rgb(102, 186, 93);"></path></g><g class="path" style="transform: scale(0.91); transform-origin: -92.805px 0.377416px; animation: 0.8s linear -0.446769s infinite normal forwards running breath-ac4f77ad-a1d0-4342-ac37-ab9c3e5d1db0;"><path d="M47.00-18.51L47.00-18.51L43.66-12.97L43.66-12.97Q43.45-13.68 43.12-14.55L43.12-14.55L43.12-14.55Q42.79-15.43 42.29-16.20L42.29-16.20L42.29-16.20Q41.80-16.96 41.12-17.48L41.12-17.48L41.12-17.48Q40.43-18 39.53-18L39.53-18L39.53-18Q38.71-18 38.10-17.58L38.10-17.58L38.10-17.58Q37.49-17.16 37.07-16.48L37.07-16.48L37.07-16.48Q36.65-15.80 36.38-14.95L36.38-14.95L36.38-14.95Q36.11-14.10 35.96-13.23L35.96-13.23L35.96-13.23Q35.81-12.36 35.75-11.56L35.75-11.56L35.75-11.56Q35.70-10.76 35.70-10.18L35.70-10.18L35.70 0L29.74 0L29.74-20.30L32.03-20.30L34.44-15.57L34.44-15.57Q34.93-16.72 35.56-17.67L35.56-17.67L35.56-17.67Q36.19-18.63 37.02-19.33L37.02-19.33L37.02-19.33Q37.85-20.02 38.89-20.41L38.89-20.41L38.89-20.41Q39.94-20.79 41.26-20.79L41.26-20.79L41.26-20.79Q41.94-20.79 42.79-20.68L42.79-20.68L42.79-20.68Q43.63-20.57 44.44-20.29L44.44-20.29L44.44-20.29Q45.25-20.02 45.93-19.58L45.93-19.58L45.93-19.58Q46.62-19.14 47.00-18.51" fill="#66ba5d" stroke="none" stroke-width="none" transform="translate(-131.17498779296875,10.772416240985581)" style="fill: rgb(157, 248, 113);"></path></g><g class="path" style="transform: scale(0.91); transform-origin: -71.315px -0.952585px; animation: 0.8s linear -0.406154s infinite normal forwards running breath-ac4f77ad-a1d0-4342-ac37-ab9c3e5d1db0;"><path d="M70.24-11.64L70.24-11.64L70.24-11.64Q70.24-9.58 69.74-7.35L69.74-7.35L69.74-7.35Q69.24-5.12 68.34-2.97L68.34-2.97L68.34-2.97Q67.45-0.83 66.20 1.06L66.20 1.06L66.20 1.06Q64.95 2.95 63.46 4.32L63.46 4.32L61.22 3.11L61.22 3.11Q61.70 2.23 62.12 1.14L62.12 1.14L62.12 1.14Q62.54 0.05 62.89-1.17L62.89-1.17L62.89-1.17Q63.23-2.39 63.50-3.69L63.50-3.69L63.50-3.69Q63.77-4.99 63.96-6.27L63.96-6.27L63.96-6.27Q64.14-7.54 64.24-8.75L64.24-8.75L64.24-8.75Q64.34-9.95 64.34-10.99L64.34-10.99L64.34-10.99Q64.34-11.67 64.28-12.45L64.28-12.45L64.28-12.45Q64.23-13.24 64.06-14.02L64.06-14.02L64.06-14.02Q63.90-14.80 63.62-15.52L63.62-15.52L63.62-15.52Q63.33-16.24 62.87-16.79L62.87-16.79L62.87-16.79Q62.40-17.33 61.74-17.67L61.74-17.67L61.74-17.67Q61.08-18 60.19-18L60.19-18L60.19-18Q59.31-18 58.62-17.60L58.62-17.60L58.62-17.60Q57.94-17.21 57.41-16.57L57.41-16.57L57.41-16.57Q56.88-15.93 56.50-15.10L56.50-15.10L56.50-15.10Q56.13-14.27 55.89-13.40L55.89-13.40L55.89-13.40Q55.65-12.53 55.55-11.69L55.55-11.69L55.55-11.69Q55.44-10.85 55.44-10.18L55.44-10.18L55.44 0L49.48 0L49.48-27.77L55.42-27.77L55.42-17.31L55.42-17.31Q56.57-18.98 58.23-19.89L58.23-19.89L58.23-19.89Q59.89-20.79 61.91-20.79L61.91-20.79L61.91-20.79Q64.02-20.79 65.58-20.11L65.58-20.11L65.58-20.11Q67.15-19.42 68.19-18.20L68.19-18.20L68.19-18.20Q69.22-16.98 69.73-15.30L69.73-15.30L69.73-15.30Q70.24-13.62 70.24-11.64" fill="#66ba5d" stroke="none" stroke-width="none" transform="translate(-131.17498779296875,10.772416240985581)" style="fill: rgb(157, 248, 113);"></path></g><g class="path" style="transform: scale(0.91); transform-origin: -47.36px 0.577415px; animation: 0.8s linear -0.365538s infinite normal forwards running breath-ac4f77ad-a1d0-4342-ac37-ab9c3e5d1db0;"><path d="M94.61-20.30L94.61 0L88.66 0L88.66-2.43L88.66-2.43Q87.61-0.98 86.12-0.29L86.12-0.29L86.12-0.29Q84.64 0.40 82.86 0.40L82.86 0.40L82.86 0.40Q80.54 0.40 78.71-0.42L78.71-0.42L78.71-0.42Q76.89-1.25 75.62-2.68L75.62-2.68L75.62-2.68Q74.36-4.11 73.69-6.05L73.69-6.05L73.69-6.05Q73.02-7.98 73.02-10.20L73.02-10.20L73.02-10.20Q73.02-12.41 73.69-14.34L73.69-14.34L73.69-14.34Q74.36-16.28 75.62-17.71L75.62-17.71L75.62-17.71Q76.89-19.14 78.71-19.97L78.71-19.97L78.71-19.97Q80.54-20.79 82.86-20.79L82.86-20.79L82.86-20.79Q84.04-20.79 85.10-20.44L85.10-20.44L85.10-20.44Q86.17-20.09 87.06-19.45L87.06-19.45L87.06-19.45Q87.94-18.81 88.62-17.90L88.62-17.90L88.62-17.90Q89.30-17.00 89.68-15.89L89.68-15.89L92.32-20.30L94.61-20.30zM88.63-10.20L88.63-10.20L88.63-10.20Q88.63-10.99 88.55-11.87L88.55-11.87L88.55-11.87Q88.47-12.74 88.28-13.61L88.28-13.61L88.28-13.61Q88.08-14.47 87.74-15.25L87.74-15.25L87.74-15.25Q87.40-16.03 86.86-16.64L86.86-16.64L86.86-16.64Q86.33-17.24 85.57-17.60L85.57-17.60L85.57-17.60Q84.81-17.95 83.81-17.95L83.81-17.95L83.81-17.95Q82.81-17.95 82.07-17.59L82.07-17.59L82.07-17.59Q81.33-17.23 80.81-16.62L80.81-16.62L80.81-16.62Q80.28-16.01 79.94-15.22L79.94-15.22L79.94-15.22Q79.59-14.43 79.40-13.57L79.40-13.57L79.40-13.57Q79.21-12.71 79.13-11.84L79.13-11.84L79.13-11.84Q79.05-10.97 79.05-10.20L79.05-10.20L79.05-10.20Q79.05-9.42 79.13-8.54L79.13-8.54L79.13-8.54Q79.21-7.66 79.40-6.80L79.40-6.80L79.40-6.80Q79.59-5.94 79.94-5.15L79.94-5.15L79.94-5.15Q80.28-4.36 80.81-3.75L80.81-3.75L80.81-3.75Q81.33-3.15 82.07-2.79L82.07-2.79L82.07-2.79Q82.81-2.43 83.81-2.43L83.81-2.43L83.81-2.43Q84.73-2.43 85.44-2.80L85.44-2.80L85.44-2.80Q86.15-3.18 86.69-3.81L86.69-3.81L86.69-3.81Q87.22-4.45 87.59-5.26L87.59-5.26L87.59-5.26Q87.96-6.06 88.19-6.93L88.19-6.93L88.19-6.93Q88.42-7.79 88.52-8.64L88.52-8.64L88.52-8.64Q88.63-9.49 88.63-10.20" fill="#66ba5d" stroke="none" stroke-width="none" transform="translate(-131.17498779296875,10.772416240985581)" style="fill: rgb(102, 186, 93);"></path></g><g class="path" style="transform: scale(0.91); transform-origin: -21.235px 2.53742px; animation: 0.8s linear -0.324923s infinite normal forwards running breath-ac4f77ad-a1d0-4342-ac37-ab9c3e5d1db0;"><path d="M120.32-11.64L120.32-11.64L120.32-11.64Q120.32-9.58 119.82-7.35L119.82-7.35L119.82-7.35Q119.32-5.12 118.42-2.97L118.42-2.97L118.42-2.97Q117.53-0.83 116.28 1.06L116.28 1.06L116.28 1.06Q115.03 2.95 113.54 4.32L113.54 4.32L111.30 3.11L111.30 3.11Q111.78 2.23 112.20 1.14L112.20 1.14L112.20 1.14Q112.62 0.05 112.97-1.17L112.97-1.17L112.97-1.17Q113.31-2.39 113.58-3.69L113.58-3.69L113.58-3.69Q113.85-4.99 114.04-6.27L114.04-6.27L114.04-6.27Q114.22-7.54 114.32-8.75L114.32-8.75L114.32-8.75Q114.42-9.95 114.42-10.99L114.42-10.99L114.42-10.99Q114.42-11.67 114.36-12.45L114.36-12.45L114.36-12.45Q114.31-13.24 114.14-14.02L114.14-14.02L114.14-14.02Q113.98-14.80 113.70-15.52L113.70-15.52L113.70-15.52Q113.41-16.24 112.95-16.79L112.95-16.79L112.95-16.79Q112.48-17.33 111.82-17.67L111.82-17.67L111.82-17.67Q111.16-18 110.27-18L110.27-18L110.27-18Q109.39-18 108.70-17.60L108.70-17.60L108.70-17.60Q108.02-17.21 107.49-16.57L107.49-16.57L107.49-16.57Q106.96-15.93 106.58-15.10L106.58-15.10L106.58-15.10Q106.21-14.27 105.97-13.40L105.97-13.40L105.97-13.40Q105.73-12.53 105.63-11.69L105.63-11.69L105.63-11.69Q105.52-10.85 105.52-10.18L105.52-10.18L105.52 0L99.56 0L99.56-20.30L101.85-20.30L104.57-15.57L104.57-15.57Q105.06-16.75 105.80-17.72L105.80-17.72L105.80-17.72Q106.54-18.69 107.47-19.37L107.47-19.37L107.47-19.37Q108.40-20.06 109.54-20.43L109.54-20.43L109.54-20.43Q110.67-20.79 111.99-20.79L111.99-20.79L111.99-20.79Q114.10-20.79 115.66-20.11L115.66-20.11L115.66-20.11Q117.23-19.42 118.27-18.20L118.27-18.20L118.27-18.20Q119.30-16.98 119.81-15.30L119.81-15.30L119.81-15.30Q120.32-13.62 120.32-11.64" fill="#66ba5d" stroke="none" stroke-width="none" transform="translate(-131.17498779296875,10.772416240985581)" style="fill: rgb(102, 186, 93);"></path></g><g class="path" style="transform: scale(0.91); transform-origin: 2.24001px 0.577415px; animation: 0.8s linear -0.284308s infinite normal forwards running breath-ac4f77ad-a1d0-4342-ac37-ab9c3e5d1db0;"><path d="M129.13-9.63L129.13-9.63L129.13-9.63Q130.22-9.39 131.31-9.25L131.31-9.25L131.31-9.25Q132.40-9.11 133.51-9.11L133.51-9.11L133.51-9.11Q134.67-9.11 135.66-9.33L135.66-9.33L135.66-9.33Q136.65-9.54 137.38-10.06L137.38-10.06L137.38-10.06Q138.11-10.58 138.53-11.44L138.53-11.44L138.53-11.44Q138.96-12.30 138.96-13.59L138.96-13.59L138.96-13.59Q138.96-14.63 138.67-15.49L138.67-15.49L138.67-15.49Q138.39-16.35 137.84-16.96L137.84-16.96L137.84-16.96Q137.29-17.58 136.48-17.92L136.48-17.92L136.48-17.92Q135.67-18.26 134.60-18.26L134.60-18.26L134.60-18.26Q133.59-18.26 132.79-17.89L132.79-17.89L132.79-17.89Q131.99-17.53 131.39-16.90L131.39-16.90L131.39-16.90Q130.78-16.28 130.35-15.45L130.35-15.45L130.35-15.45Q129.92-14.63 129.64-13.73L129.64-13.73L129.64-13.73Q129.36-12.83 129.23-11.92L129.23-11.92L129.23-11.92Q129.11-11.00 129.11-10.20L129.11-10.20L129.11-10.20Q129.11-10.05 129.11-9.91L129.11-9.91L129.11-9.91Q129.11-9.77 129.13-9.63zM143.77-13.64L143.77-13.64L143.77-13.64Q143.77-12.39 143.37-11.42L143.37-11.42L143.37-11.42Q142.96-10.44 142.27-9.70L142.27-9.70L142.27-9.70Q141.57-8.96 140.66-8.46L140.66-8.46L140.66-8.46Q139.75-7.95 138.71-7.62L138.71-7.62L138.71-7.62Q137.67-7.29 136.57-7.15L136.57-7.15L136.57-7.15Q135.47-7.01 134.44-7.01L134.44-7.01L134.44-7.01Q133.12-7.01 131.84-7.20L131.84-7.20L131.84-7.20Q130.55-7.38 129.30-7.79L129.30-7.79L129.30-7.79Q129.50-6.63 129.92-5.58L129.92-5.58L129.92-5.58Q130.34-4.54 131.04-3.75L131.04-3.75L131.04-3.75Q131.75-2.97 132.78-2.51L132.78-2.51L132.78-2.51Q133.80-2.06 135.21-2.06L135.21-2.06L135.21-2.06Q136.14-2.06 136.99-2.34L136.99-2.34L136.99-2.34Q137.83-2.62 138.53-3.13L138.53-3.13L138.53-3.13Q139.24-3.64 139.77-4.34L139.77-4.34L139.77-4.34Q140.31-5.04 140.64-5.91L140.64-5.91L143.21-4.96L143.21-4.96Q142.63-3.57 141.62-2.56L141.62-2.56L141.62-2.56Q140.61-1.55 139.33-0.89L139.33-0.89L139.33-0.89Q138.06-0.23 136.63 0.09L136.63 0.09L136.63 0.09Q135.19 0.40 133.79 0.40L133.79 0.40L133.79 0.40Q131.47 0.40 129.50-0.38L129.50-0.38L129.50-0.38Q127.53-1.16 126.11-2.57L126.11-2.57L126.11-2.57Q124.68-3.97 123.87-5.92L123.87-5.92L123.87-5.92Q123.06-7.88 123.06-10.20L123.06-10.20L123.06-10.20Q123.06-12.52 123.87-14.47L123.87-14.47L123.87-14.47Q124.68-16.42 126.11-17.82L126.11-17.82L126.11-17.82Q127.53-19.23 129.50-20.01L129.50-20.01L129.50-20.01Q131.47-20.79 133.79-20.79L133.79-20.79L133.79-20.79Q134.91-20.79 136.09-20.64L136.09-20.64L136.09-20.64Q137.27-20.48 138.38-20.14L138.38-20.14L138.38-20.14Q139.48-19.79 140.47-19.25L140.47-19.25L140.47-19.25Q141.45-18.70 142.18-17.90L142.18-17.90L142.18-17.90Q142.91-17.10 143.34-16.05L143.34-16.05L143.34-16.05Q143.77-14.99 143.77-13.64" fill="#66ba5d" stroke="none" stroke-width="none" transform="translate(-131.17498779296875,10.772416240985581)" style="fill: rgb(102, 186, 93);"></path></g><g class="path" style="transform: scale(0.91); transform-origin: 18.875px 8.14242px; animation: 0.8s linear -0.243692s infinite normal forwards running breath-ac4f77ad-a1d0-4342-ac37-ab9c3e5d1db0;"><path d="M153.25-2.64L153.25-2.64L153.25-2.64Q153.25-1.97 153-1.38L153-1.38L153-1.38Q152.75-0.79 152.31-0.36L152.31-0.36L152.31-0.36Q151.88 0.07 151.29 0.33L151.29 0.33L151.29 0.33Q150.71 0.58 150.05 0.58L150.05 0.58L150.05 0.58Q149.38 0.58 148.80 0.33L148.80 0.33L148.80 0.33Q148.22 0.07 147.78-0.36L147.78-0.36L147.78-0.36Q147.34-0.79 147.09-1.38L147.09-1.38L147.09-1.38Q146.85-1.97 146.85-2.64L146.85-2.64L146.85-2.64Q146.85-3.29 147.09-3.88L147.09-3.88L147.09-3.88Q147.34-4.46 147.78-4.90L147.78-4.90L147.78-4.90Q148.22-5.33 148.80-5.58L148.80-5.58L148.80-5.58Q149.38-5.84 150.05-5.84L150.05-5.84L150.05-5.84Q150.71-5.84 151.29-5.58L151.29-5.58L151.29-5.58Q151.88-5.33 152.31-4.90L152.31-4.90L152.31-4.90Q152.75-4.46 153-3.88L153-3.88L153-3.88Q153.25-3.29 153.25-2.64" fill="#66ba5d" stroke="none" stroke-width="none" transform="translate(-131.17498779296875,10.772416240985581)" style="fill: rgb(157, 248, 113);"></path></g><g class="path" style="transform: scale(0.91); transform-origin: 37.56px -1.92758px; animation: 0.8s linear -0.203077s infinite normal forwards running breath-ac4f77ad-a1d0-4342-ac37-ab9c3e5d1db0;"><path d="M180.95-19.04L180.95-19.04L177.94-17.77L177.94-17.77Q177.59-18.91 177.00-19.86L177.00-19.86L177.00-19.86Q176.41-20.81 175.60-21.49L175.60-21.49L175.60-21.49Q174.78-22.17 173.74-22.54L173.74-22.54L173.74-22.54Q172.71-22.92 171.47-22.92L171.47-22.92L171.47-22.92Q170.16-22.92 169.06-22.48L169.06-22.48L169.06-22.48Q167.96-22.04 167.09-21.30L167.09-21.30L167.09-21.30Q166.22-20.55 165.57-19.55L165.57-19.55L165.57-19.55Q164.92-18.54 164.49-17.41L164.49-17.41L164.49-17.41Q164.06-16.28 163.84-15.06L163.84-15.06L163.84-15.06Q163.62-13.85 163.62-12.69L163.62-12.69L163.62-12.69Q163.62-10.85 164.05-9.02L164.05-9.02L164.05-9.02Q164.48-7.19 165.42-5.73L165.42-5.73L165.42-5.73Q166.36-4.27 167.85-3.37L167.85-3.37L167.85-3.37Q169.35-2.46 171.47-2.46L171.47-2.46L171.47-2.46Q172.63-2.46 173.29-2.98L173.29-2.98L173.29-2.98Q173.94-3.50 173.94-4.80L173.94-4.80L173.94-12.57L180.91-12.57L180.91 0L178.89 0L177.66-1.99L177.66-1.99Q175.97-0.70 173.94-0.10L173.94-0.10L173.94-0.10Q171.91 0.51 169.80 0.51L169.80 0.51L169.80 0.51Q167.94 0.51 166.23 0.05L166.23 0.05L166.23 0.05Q164.51-0.40 163.04-1.25L163.04-1.25L163.04-1.25Q161.56-2.09 160.36-3.29L160.36-3.29L160.36-3.29Q159.15-4.48 158.30-5.94L158.30-5.94L158.30-5.94Q157.45-7.40 156.98-9.11L156.98-9.11L156.98-9.11Q156.52-10.83 156.52-12.69L156.52-12.69L156.52-12.69Q156.52-14.55 156.98-16.27L156.98-16.27L156.98-16.27Q157.45-17.98 158.30-19.45L158.30-19.45L158.30-19.45Q159.15-20.92 160.36-22.11L160.36-22.11L160.36-22.11Q161.56-23.31 163.04-24.15L163.04-24.15L163.04-24.15Q164.51-25.00 166.23-25.45L166.23-25.45L166.23-25.45Q167.94-25.91 169.80-25.91L169.80-25.91L169.80-25.91Q171.60-25.91 173.31-25.49L173.31-25.49L173.31-25.49Q175.03-25.07 176.50-24.21L176.50-24.21L176.50-24.21Q177.98-23.36 179.13-22.07L179.13-22.07L179.13-22.07Q180.28-20.78 180.95-19.04" fill="#66ba5d" stroke="none" stroke-width="none" transform="translate(-131.17498779296875,10.772416240985581)" style="fill: rgb(157, 248, 113);"></path></g><g class="path" style="transform: scale(0.91); transform-origin: 57.095px -14.4276px; animation: 0.8s linear -0.162462s infinite normal forwards running breath-ac4f77ad-a1d0-4342-ac37-ab9c3e5d1db0;"><path d="M191.51-25.21L191.51-25.21L191.51-25.21Q191.51-24.54 191.26-23.94L191.26-23.94L191.26-23.94Q191.00-23.34 190.56-22.90L190.56-22.90L190.56-22.90Q190.13-22.46 189.53-22.21L189.53-22.21L189.53-22.21Q188.93-21.96 188.26-21.96L188.26-21.96L188.26-21.96Q187.59-21.96 187.00-22.21L187.00-22.21L187.00-22.21Q186.42-22.46 185.98-22.90L185.98-22.90L185.98-22.90Q185.54-23.34 185.28-23.94L185.28-23.94L185.28-23.94Q185.03-24.54 185.03-25.21L185.03-25.21L185.03-25.21Q185.03-25.88 185.28-26.46L185.28-26.46L185.28-26.46Q185.54-27.05 185.98-27.49L185.98-27.49L185.98-27.49Q186.42-27.93 187.00-28.19L187.00-28.19L187.00-28.19Q187.59-28.44 188.26-28.44L188.26-28.44L188.26-28.44Q188.93-28.44 189.53-28.19L189.53-28.19L189.53-28.19Q190.13-27.93 190.56-27.49L190.56-27.49L190.56-27.49Q191.00-27.05 191.26-26.46L191.26-26.46L191.26-26.46Q191.51-25.88 191.51-25.21" fill="#66ba5d" stroke="none" stroke-width="none" transform="translate(-131.17498779296875,10.772416240985581)" style="fill: rgb(102, 186, 93);"></path></g><g class="path" style="transform: scale(0.91); transform-origin: 57.095px 0.627416px; animation: 0.8s linear -0.121846s infinite normal forwards running breath-ac4f77ad-a1d0-4342-ac37-ab9c3e5d1db0;"><path d="M191.25-20.29L191.25 0L185.29 0L185.29-20.29L191.25-20.29" fill="#66ba5d" stroke="none" stroke-width="none" transform="translate(-131.17498779296875,10.772416240985581)" style="fill: rgb(102, 186, 93);"></path></g><g class="path" style="transform: scale(0.91); transform-origin: 74.72px -2.87759px; animation: 0.8s linear -0.0812308s infinite normal forwards running breath-ac4f77ad-a1d0-4342-ac37-ab9c3e5d1db0;"><path d="M216.69-27.77L216.69 0L214.40 0L211.76-4.41L211.76-4.41Q211.38-3.30 210.70-2.41L210.70-2.41L210.70-2.41Q210.02-1.51 209.14-0.87L209.14-0.87L209.14-0.87Q208.25-0.23 207.18 0.12L207.18 0.12L207.18 0.12Q206.12 0.47 204.94 0.47L204.94 0.47L204.94 0.47Q202.62 0.47 200.79-0.35L200.79-0.35L200.79-0.35Q198.97-1.18 197.70-2.61L197.70-2.61L197.70-2.61Q196.44-4.04 195.77-5.98L195.77-5.98L195.77-5.98Q195.10-7.91 195.10-10.13L195.10-10.13L195.10-10.13Q195.10-12.34 195.77-14.27L195.77-14.27L195.77-14.27Q196.44-16.21 197.70-17.63L197.70-17.63L197.70-17.63Q198.97-19.05 200.79-19.88L200.79-19.88L200.79-19.88Q202.62-20.71 204.94-20.71L204.94-20.71L204.94-20.71Q206.72-20.71 208.20-20.02L208.20-20.02L208.20-20.02Q209.69-19.34 210.74-17.88L210.74-17.88L210.74-27.77L216.69-27.77zM210.71-10.13L210.71-10.13L210.71-10.13Q210.71-10.83 210.60-11.67L210.60-11.67L210.60-11.67Q210.50-12.52 210.27-13.38L210.27-13.38L210.27-13.38Q210.04-14.24 209.67-15.05L209.67-15.05L209.67-15.05Q209.30-15.86 208.77-16.49L208.77-16.49L208.77-16.49Q208.23-17.12 207.52-17.50L207.52-17.50L207.52-17.50Q206.81-17.88 205.89-17.88L205.89-17.88L205.89-17.88Q204.89-17.88 204.15-17.52L204.15-17.52L204.15-17.52Q203.41-17.16 202.89-16.55L202.89-16.55L202.89-16.55Q202.36-15.94 202.02-15.15L202.02-15.15L202.02-15.15Q201.67-14.36 201.48-13.50L201.48-13.50L201.48-13.50Q201.29-12.64 201.21-11.77L201.21-11.77L201.21-11.77Q201.13-10.90 201.13-10.13L201.13-10.13L201.13-10.13Q201.13-9.35 201.21-8.48L201.21-8.48L201.21-8.48Q201.29-7.61 201.48-6.75L201.48-6.75L201.48-6.75Q201.67-5.89 202.02-5.09L202.02-5.09L202.02-5.09Q202.36-4.29 202.89-3.68L202.89-3.68L202.89-3.68Q203.41-3.08 204.15-2.72L204.15-2.72L204.15-2.72Q204.89-2.36 205.89-2.36L205.89-2.36L205.89-2.36Q206.89-2.36 207.65-2.71L207.65-2.71L207.65-2.71Q208.41-3.06 208.94-3.67L208.94-3.67L208.94-3.67Q209.48-4.27 209.82-5.05L209.82-5.05L209.82-5.05Q210.16-5.84 210.36-6.71L210.36-6.71L210.36-6.71Q210.55-7.58 210.63-8.46L210.63-8.46L210.63-8.46Q210.71-9.33 210.71-10.13" fill="#66ba5d" stroke="none" stroke-width="none" transform="translate(-131.17498779296875,10.772416240985581)" style="fill: rgb(102, 186, 93);"></path></g><g class="path" style="transform: scale(0.91); transform-origin: 100.12px 0.577415px; animation: 0.8s linear -0.0406154s infinite normal forwards running breath-ac4f77ad-a1d0-4342-ac37-ab9c3e5d1db0;"><path d="M242.09-20.30L242.09 0L236.14 0L236.14-2.43L236.14-2.43Q235.09-0.98 233.60-0.29L233.60-0.29L233.60-0.29Q232.12 0.40 230.34 0.40L230.34 0.40L230.34 0.40Q228.02 0.40 226.20-0.42L226.20-0.42L226.20-0.42Q224.37-1.25 223.10-2.68L223.10-2.68L223.10-2.68Q221.84-4.11 221.17-6.05L221.17-6.05L221.17-6.05Q220.50-7.98 220.50-10.20L220.50-10.20L220.50-10.20Q220.50-12.41 221.17-14.34L221.17-14.34L221.17-14.34Q221.84-16.28 223.10-17.71L223.10-17.71L223.10-17.71Q224.37-19.14 226.20-19.97L226.20-19.97L226.20-19.97Q228.02-20.79 230.34-20.79L230.34-20.79L230.34-20.79Q231.52-20.79 232.58-20.44L232.58-20.44L232.58-20.44Q233.65-20.09 234.54-19.45L234.54-19.45L234.54-19.45Q235.42-18.81 236.10-17.90L236.10-17.90L236.10-17.90Q236.78-17.00 237.16-15.89L237.16-15.89L239.80-20.30L242.09-20.30zM236.11-10.20L236.11-10.20L236.11-10.20Q236.11-10.99 236.03-11.87L236.03-11.87L236.03-11.87Q235.95-12.74 235.76-13.61L235.76-13.61L235.76-13.61Q235.56-14.47 235.22-15.25L235.22-15.25L235.22-15.25Q234.88-16.03 234.34-16.64L234.34-16.64L234.34-16.64Q233.81-17.24 233.05-17.60L233.05-17.60L233.05-17.60Q232.29-17.95 231.29-17.95L231.29-17.95L231.29-17.95Q230.29-17.95 229.55-17.59L229.55-17.59L229.55-17.59Q228.81-17.23 228.29-16.62L228.29-16.62L228.29-16.62Q227.76-16.01 227.42-15.22L227.42-15.22L227.42-15.22Q227.07-14.43 226.88-13.57L226.88-13.57L226.88-13.57Q226.69-12.71 226.61-11.84L226.61-11.84L226.61-11.84Q226.53-10.97 226.53-10.20L226.53-10.20L226.53-10.20Q226.53-9.42 226.61-8.54L226.61-8.54L226.61-8.54Q226.69-7.66 226.88-6.80L226.88-6.80L226.88-6.80Q227.07-5.94 227.42-5.15L227.42-5.15L227.42-5.15Q227.76-4.36 228.29-3.75L228.29-3.75L228.29-3.75Q228.81-3.15 229.55-2.79L229.55-2.79L229.55-2.79Q230.29-2.43 231.29-2.43L231.29-2.43L231.29-2.43Q232.21-2.43 232.92-2.80L232.92-2.80L232.92-2.80Q233.63-3.18 234.17-3.81L234.17-3.81L234.17-3.81Q234.70-4.45 235.07-5.26L235.07-5.26L235.07-5.26Q235.44-6.06 235.67-6.93L235.67-6.93L235.67-6.93Q235.90-7.79 236.00-8.64L236.00-8.64L236.00-8.64Q236.11-9.49 236.11-10.20" fill="#66ba5d" stroke="none" stroke-width="none" transform="translate(-131.17498779296875,10.772416240985581)" style="fill: rgb(157, 248, 113);"></path></g><g class="path" style="transform: scale(0.91); transform-origin: 123.68px 5.30742px; animation: 0.8s linear 0s infinite normal forwards running breath-ac4f77ad-a1d0-4342-ac37-ab9c3e5d1db0;"><path d="M261.11-20.30L265.22-20.30L257.84-2.44L257.84-2.44Q256.57 0.62 255.01 3.61L255.01 3.61L255.01 3.61Q253.46 6.61 251.65 9.37L251.65 9.37L249.33 7.96L249.33 7.96Q249.77 7.17 250.37 6.13L250.37 6.13L250.37 6.13Q250.96 5.10 251.54 3.99L251.54 3.99L251.54 3.99Q252.12 2.88 252.62 1.80L252.62 1.80L252.62 1.80Q253.11 0.72 253.37-0.18L253.37-0.18L244.49-20.30L250.44-20.30L256.46-6.57L261.11-20.30" fill="#66ba5d" stroke="none" stroke-width="none" transform="translate(-131.17498779296875,10.772416240985581)" style="fill: rgb(157, 248, 113);"></path></g></g>
</g>
</g>
<style id="breath-ac4f77ad-a1d0-4342-ac37-ab9c3e5d1db0" data-anikit="">@keyframes breath-ac4f77ad-a1d0-4342-ac37-ab9c3e5d1db0
{
  0% {
    animation-timing-function: cubic-bezier(0.9647,0.2413,-0.0705,0.7911);
    transform: scale(0.9099999999999999);
  }
  51% {
    animation-timing-function: cubic-bezier(0.9226,0.2631,-0.0308,0.7628);
    transform: scale(1.02994);
  }
  100% {
    transform: scale(0.9099999999999999);
  }
}</style></svg>