<?xml version="1.0" encoding="utf-8"?>
<svg xmlns="http://www.w3.org/2000/svg" style="margin: auto; background: none; display: block; shape-rendering: auto;" width="286" height="46" preserveAspectRatio="xMidYMid">
<style type="text/css">
  text {
    text-anchor: middle; font-size: 38px; opacity: 0;
  }
</style>
<g style="transform-origin:143px 23px;transform:scale(1)">
<g transform="translate(143,23)">
  <g transform="translate(0,0)"><g class="path" style="transform: scale(0.91); transform-origin: -116.11px -3.00255px; animation: 12.5s linear -7.66071s infinite normal forwards running breath-fa40e219-7005-4813-8b5d-4bd37db79600;"><path d="M20.14 0L20.14-12.12L7.03-12.12L7.03 0L3.42 0L3.42-26.60L7.03-26.60L7.03-15.24L20.14-15.24L20.14-26.60L23.75-26.60L23.75 0L20.14 0" fill="#734ec6" stroke="none" stroke-width="none" transform="translate(-129.69500732421875,10.297453133719317)" style="fill: rgb(115, 78, 198);"></path></g><g class="path" style="transform: scale(0.91); transform-origin: -92.095px 0.417453px; animation: 12.5s linear -7.07143s infinite normal forwards running breath-fa40e219-7005-4813-8b5d-4bd37db79600;"><path d="M46.21-8.47L32.38-8.47L32.38-8.47Q32.72-5.70 34.31-4.14L34.31-4.14L34.31-4.14Q35.91-2.58 38.53-2.58L38.53-2.58L38.53-2.58Q40.24-2.58 41.61-2.94L41.61-2.94L41.61-2.94Q42.98-3.31 44.23-3.88L44.23-3.88L45.03-0.95L45.03-0.95Q43.66-0.30 41.95 0.08L41.95 0.08L41.95 0.08Q40.24 0.46 38.11 0.46L38.11 0.46L38.11 0.46Q35.99 0.46 34.28-0.25L34.28-0.25L34.28-0.25Q32.57-0.95 31.37-2.26L31.37-2.26L31.37-2.26Q30.17-3.57 29.53-5.49L29.53-5.49L29.53-5.49Q28.88-7.41 28.88-9.88L28.88-9.88L28.88-9.88Q28.88-12.08 29.53-13.98L29.53-13.98L29.53-13.98Q30.17-15.88 31.35-17.27L31.35-17.27L31.35-17.27Q32.53-18.66 34.16-19.44L34.16-19.44L34.16-19.44Q35.80-20.22 37.81-20.22L37.81-20.22L37.81-20.22Q39.94-20.22 41.53-19.49L41.53-19.49L41.53-19.49Q43.13-18.77 44.19-17.52L44.19-17.52L44.19-17.52Q45.26-16.26 45.79-14.59L45.79-14.59L45.79-14.59Q46.32-12.92 46.32-11.06L46.32-11.06L46.32-11.06Q46.32-9.73 46.21-8.47L46.21-8.47zM37.73-17.25L37.73-17.25L37.73-17.25Q35.49-17.25 34.07-15.73L34.07-15.73L34.07-15.73Q32.64-14.21 32.34-11.25L32.34-11.25L43.17-11.25L43.17-11.25Q43.17-14.14 41.72-15.69L41.72-15.69L41.72-15.69Q40.28-17.25 37.73-17.25" fill="#734ec6" stroke="none" stroke-width="none" transform="translate(-129.69500732421875,10.297453133719317)" style="fill: rgb(115, 78, 198);"></path></g><g class="path" style="transform: scale(0.91); transform-origin: -72.945px 0.187453px; animation: 12.5s linear -6.48214s infinite normal forwards running breath-fa40e219-7005-4813-8b5d-4bd37db79600;"><path d="M62.62-19.99L61.60-16.45L61.60-16.45Q60.88-16.76 59.89-16.76L59.89-16.76L59.89-16.76Q58.82-16.76 57.82-16.30L57.82-16.30L57.82-16.30Q56.81-15.85 56.03-14.93L56.03-14.93L56.03-14.93Q55.25-14.02 54.78-12.60L54.78-12.60L54.78-12.60Q54.30-11.17 54.30-9.23L54.30-9.23L54.30 0L50.88 0L50.88-19.76L54.19-19.76L54.19-15.47L54.19-15.47Q54.53-16.38 55.10-17.25L55.10-17.25L55.10-17.25Q55.67-18.13 56.45-18.77L56.45-18.77L56.45-18.77Q57.23-19.42 58.25-19.82L58.25-19.82L58.25-19.82Q59.28-20.22 60.53-20.22L60.53-20.22L60.53-20.22Q61.10-20.22 61.66-20.16L61.66-20.16L61.66-20.16Q62.21-20.10 62.62-19.99L62.62-19.99" fill="#734ec6" stroke="none" stroke-width="none" transform="translate(-129.69500732421875,10.297453133719317)" style="fill: rgb(115, 78, 198);"></path></g><g class="path" style="transform: scale(0.91); transform-origin: -56.015px 0.417453px; animation: 12.5s linear -5.89286s infinite normal forwards running breath-fa40e219-7005-4813-8b5d-4bd37db79600;"><path d="M63.57-9.77L63.57-9.77L63.57-9.77Q63.57-11.97 64.26-13.89L64.26-13.89L64.26-13.89Q64.94-15.81 66.18-17.21L66.18-17.21L66.18-17.21Q67.41-18.62 69.14-19.42L69.14-19.42L69.14-19.42Q70.87-20.22 72.92-20.22L72.92-20.22L72.92-20.22Q74.63-20.22 76.02-19.63L76.02-19.63L76.02-19.63Q77.41-19.04 78.43-18.16L78.43-18.16L78.43-19.76L81.55-19.76L81.55-4.79L81.55-4.79Q81.55-3.34 82.25-2.91L82.25-2.91L82.25-2.91Q82.95-2.47 83.79-2.47L83.79-2.47L83.07 0.19L83.07 0.19Q79.42 0.19 78.66-2.77L78.66-2.77L78.66-2.77Q78.20-2.17 77.61-1.58L77.61-1.58L77.61-1.58Q77.03-0.99 76.27-0.53L76.27-0.53L76.27-0.53Q75.51-0.08 74.56 0.19L74.56 0.19L74.56 0.19Q73.61 0.46 72.47 0.46L72.47 0.46L72.47 0.46Q70.60 0.46 68.99-0.27L68.99-0.27L68.99-0.27Q67.37-0.99 66.18-2.32L66.18-2.32L66.18-2.32Q64.98-3.65 64.28-5.53L64.28-5.53L64.28-5.53Q63.57-7.41 63.57-9.77zM73.23-2.58L73.23-2.58L73.23-2.58Q74.67-2.58 75.96-3.27L75.96-3.27L75.96-3.27Q77.25-3.95 78.13-5.05L78.13-5.05L78.13-15.66L78.13-15.66Q77.10-16.38 75.87-16.82L75.87-16.82L75.87-16.82Q74.63-17.25 73.26-17.25L73.26-17.25L73.26-17.25Q71.90-17.25 70.76-16.72L70.76-16.72L70.76-16.72Q69.62-16.19 68.80-15.22L68.80-15.22L68.80-15.22Q67.98-14.25 67.53-12.88L67.53-12.88L67.53-12.88Q67.07-11.51 67.07-9.88L67.07-9.88L67.07-9.88Q67.07-8.28 67.53-6.93L67.53-6.93L67.53-6.93Q67.98-5.59 68.82-4.62L68.82-4.62L68.82-4.62Q69.65-3.65 70.77-3.12L70.77-3.12L70.77-3.12Q71.90-2.58 73.23-2.58" fill="#734ec6" stroke="none" stroke-width="none" transform="translate(-129.69500732421875,10.297453133719317)" style="fill: rgb(115, 78, 198);"></path></g><g class="path" style="transform: scale(0.91); transform-origin: -33.04px 0.187453px; animation: 12.5s linear -5.30357s infinite normal forwards running breath-fa40e219-7005-4813-8b5d-4bd37db79600;"><path d="M91.66-19.76L91.66-16.45L91.66-16.45Q92.72-18.05 94.37-19.13L94.37-19.13L94.37-19.13Q96.03-20.22 98.31-20.22L98.31-20.22L98.31-20.22Q101.65-20.22 103.30-18.20L103.30-18.20L103.30-18.20Q104.96-16.19 104.96-12.88L104.96-12.88L104.96 0L101.54 0L101.54-12.50L101.54-12.50Q101.54-14.67 100.55-15.94L100.55-15.94L100.55-15.94Q99.56-17.21 97.74-17.21L97.74-17.21L97.74-17.21Q96.86-17.21 96.03-16.89L96.03-16.89L96.03-16.89Q95.19-16.57 94.41-16.00L94.41-16.00L94.41-16.00Q93.63-15.43 92.97-14.67L92.97-14.67L92.97-14.67Q92.30-13.91 91.77-13.07L91.77-13.07L91.77 0L88.35 0L88.35-19.76L91.66-19.76" fill="#734ec6" stroke="none" stroke-width="none" transform="translate(-129.69500732421875,10.297453133719317)" style="fill: rgb(115, 78, 198);"></path></g><g class="path" style="transform: scale(0.91); transform-origin: -16.19px 8.20745px; animation: 12.5s linear -4.71429s infinite normal forwards running breath-fa40e219-7005-4813-8b5d-4bd37db79600;"><path d="M110.96-2.09L110.96-2.09L110.96-2.09Q110.96-3.27 111.63-3.95L111.63-3.95L111.63-3.95Q112.29-4.64 113.51-4.64L113.51-4.64L113.51-4.64Q114.49-4.64 115.27-3.88L115.27-3.88L115.27-3.88Q116.05-3.12 116.05-2.09L116.05-2.09L116.05-2.09Q116.05-0.95 115.33-0.25L115.33-0.25L115.33-0.25Q114.61 0.46 113.51 0.46L113.51 0.46L113.51 0.46Q112.48 0.46 111.72-0.30L111.72-0.30L111.72-0.30Q110.96-1.06 110.96-2.09" fill="#734ec6" stroke="none" stroke-width="none" transform="translate(-129.69500732421875,10.297453133719317)" style="fill: rgb(12, 109, 159);"></path></g><g class="path" style="transform: scale(0.91); transform-origin: 2.20499px -2.81255px; animation: 12.5s linear -4.125s infinite normal forwards running breath-fa40e219-7005-4813-8b5d-4bd37db79600;"><path d="M122.66 0.30L119.59-0.95L130.00-26.60L133.95-26.60L144.21-0.95L140.90 0.38L137.94-7.22L125.63-7.22L122.66 0.30zM131.78-23.03L126.77-10.26L136.76-10.26L131.78-23.03" fill="#734ec6" stroke="none" stroke-width="none" transform="translate(-129.69500732421875,10.297453133719317)" style="fill: rgb(12, 109, 159);"></path></g><g class="path" style="transform: scale(0.91); transform-origin: 23.805px 0.187453px; animation: 12.5s linear -3.53571s infinite normal forwards running breath-fa40e219-7005-4813-8b5d-4bd37db79600;"><path d="M159.37-19.99L158.35-16.45L158.35-16.45Q157.62-16.76 156.64-16.76L156.64-16.76L156.64-16.76Q155.57-16.76 154.56-16.30L154.56-16.30L154.56-16.30Q153.56-15.85 152.78-14.93L152.78-14.93L152.78-14.93Q152-14.02 151.53-12.60L151.53-12.60L151.53-12.60Q151.05-11.17 151.05-9.23L151.05-9.23L151.05 0L147.63 0L147.63-19.76L150.94-19.76L150.94-15.47L150.94-15.47Q151.28-16.38 151.85-17.25L151.85-17.25L151.85-17.25Q152.42-18.13 153.20-18.77L153.20-18.77L153.20-18.77Q153.98-19.42 155.00-19.82L155.00-19.82L155.00-19.82Q156.03-20.22 157.28-20.22L157.28-20.22L157.28-20.22Q157.85-20.22 158.40-20.16L158.40-20.16L158.40-20.16Q158.95-20.10 159.37-19.99L159.37-19.99" fill="#734ec6" stroke="none" stroke-width="none" transform="translate(-129.69500732421875,10.297453133719317)" style="fill: rgb(12, 109, 159);"></path></g><g class="path" style="transform: scale(0.91); transform-origin: 39.345px 0.417453px; animation: 12.5s linear -2.94643s infinite normal forwards running breath-fa40e219-7005-4813-8b5d-4bd37db79600;"><path d="M177.65-8.47L163.82-8.47L163.82-8.47Q164.16-5.70 165.76-4.14L165.76-4.14L165.76-4.14Q167.35-2.58 169.97-2.58L169.97-2.58L169.97-2.58Q171.68-2.58 173.05-2.94L173.05-2.94L173.05-2.94Q174.42-3.31 175.67-3.88L175.67-3.88L176.47-0.95L176.47-0.95Q175.10-0.30 173.39 0.08L173.39 0.08L173.39 0.08Q171.68 0.46 169.56 0.46L169.56 0.46L169.56 0.46Q167.43 0.46 165.72-0.25L165.72-0.25L165.72-0.25Q164.01-0.95 162.81-2.26L162.81-2.26L162.81-2.26Q161.61-3.57 160.97-5.49L160.97-5.49L160.97-5.49Q160.32-7.41 160.32-9.88L160.32-9.88L160.32-9.88Q160.32-12.08 160.97-13.98L160.97-13.98L160.97-13.98Q161.61-15.88 162.79-17.27L162.79-17.27L162.79-17.27Q163.97-18.66 165.60-19.44L165.60-19.44L165.60-19.44Q167.24-20.22 169.25-20.22L169.25-20.22L169.25-20.22Q171.38-20.22 172.98-19.49L172.98-19.49L172.98-19.49Q174.57-18.77 175.64-17.52L175.64-17.52L175.64-17.52Q176.70-16.26 177.23-14.59L177.23-14.59L177.23-14.59Q177.76-12.92 177.76-11.06L177.76-11.06L177.76-11.06Q177.76-9.73 177.65-8.47L177.65-8.47zM169.18-17.25L169.18-17.25L169.18-17.25Q166.93-17.25 165.51-15.73L165.51-15.73L165.51-15.73Q164.08-14.21 163.78-11.25L163.78-11.25L174.61-11.25L174.61-11.25Q174.61-14.14 173.17-15.69L173.17-15.69L173.17-15.69Q171.72-17.25 169.18-17.25" fill="#734ec6" stroke="none" stroke-width="none" transform="translate(-129.69500732421875,10.297453133719317)" style="fill: rgb(12, 109, 159);"></path></g><g class="path" style="transform: scale(0.91); transform-origin: 60.13px 4.59745px; animation: 12.5s linear -2.35714s infinite normal forwards running breath-fa40e219-7005-4813-8b5d-4bd37db79600;"><path d="M190.15-20.22L190.15-20.22L190.15-20.22Q191.86-20.22 193.21-19.65L193.21-19.65L193.21-19.65Q194.56-19.08 195.55-18.24L195.55-18.24L195.55-19.76L198.66-19.76L198.66-0.46L198.66-0.46Q198.66 2.01 198.02 3.76L198.02 3.76L198.02 3.76Q197.37 5.51 196.18 6.63L196.18 6.63L196.18 6.63Q194.98 7.75 193.31 8.28L193.31 8.28L193.31 8.28Q191.63 8.82 189.58 8.82L189.58 8.82L189.58 8.82Q187.80 8.82 186.16 8.40L186.16 8.40L186.16 8.40Q184.53 7.98 183.24 7.14L183.24 7.14L184.49 4.18L184.49 4.18Q185.40 4.90 186.62 5.38L186.62 5.38L186.62 5.38Q187.83 5.85 189.58 5.85L189.58 5.85L189.58 5.85Q192.28 5.85 193.82 4.45L193.82 4.45L193.82 4.45Q195.36 3.04 195.36-0.11L195.36-0.11L195.36-2.55L195.36-2.55Q194.60-1.63 193.17-0.82L193.17-0.82L193.17-0.82Q191.75 0 189.77 0L189.77 0L189.77 0Q188.10 0 186.50-0.67L186.50-0.67L186.50-0.67Q184.91-1.33 183.69-2.60L183.69-2.60L183.69-2.60Q182.48-3.88 181.74-5.72L181.74-5.72L181.74-5.72Q180.99-7.56 180.99-9.96L180.99-9.96L180.99-9.96Q180.99-12.16 181.72-14.04L181.72-14.04L181.72-14.04Q182.44-15.92 183.67-17.29L183.67-17.29L183.67-17.29Q184.91-18.66 186.58-19.44L186.58-19.44L186.58-19.44Q188.25-20.22 190.15-20.22zM190.53-3.04L190.53-3.04L190.53-3.04Q192.05-3.04 193.27-3.72L193.27-3.72L193.27-3.72Q194.48-4.41 195.24-5.32L195.24-5.32L195.24-15.66L195.24-15.66Q194.37-16.26 193.23-16.76L193.23-16.76L193.23-16.76Q192.09-17.25 190.49-17.25L190.49-17.25L190.49-17.25Q189.32-17.25 188.23-16.78L188.23-16.78L188.23-16.78Q187.15-16.30 186.31-15.39L186.31-15.39L186.31-15.39Q185.48-14.48 184.98-13.17L184.98-13.17L184.98-13.17Q184.49-11.86 184.49-10.15L184.49-10.15L184.49-10.15Q184.49-8.51 184.98-7.20L184.98-7.20L184.98-7.20Q185.48-5.89 186.31-4.96L186.31-4.96L186.31-4.96Q187.15-4.03 188.23-3.53L188.23-3.53L188.23-3.53Q189.32-3.04 190.53-3.04" fill="#734ec6" stroke="none" stroke-width="none" transform="translate(-129.69500732421875,10.297453133719317)" style="fill: rgb(12, 109, 159);"></path></g><g class="path" style="transform: scale(0.91); transform-origin: 83.635px 0.417453px; animation: 12.5s linear -1.76786s infinite normal forwards running breath-fa40e219-7005-4813-8b5d-4bd37db79600;"><path d="M203.22-9.77L203.22-9.77L203.22-9.77Q203.22-11.97 203.91-13.89L203.91-13.89L203.91-13.89Q204.59-15.81 205.83-17.21L205.83-17.21L205.83-17.21Q207.06-18.62 208.79-19.42L208.79-19.42L208.79-19.42Q210.52-20.22 212.57-20.22L212.57-20.22L212.57-20.22Q214.28-20.22 215.67-19.63L215.67-19.63L215.67-19.63Q217.06-19.04 218.08-18.16L218.08-18.16L218.08-19.76L221.20-19.76L221.20-4.79L221.20-4.79Q221.20-3.34 221.90-2.91L221.90-2.91L221.90-2.91Q222.60-2.47 223.44-2.47L223.44-2.47L222.72 0.19L222.72 0.19Q219.07 0.19 218.31-2.77L218.31-2.77L218.31-2.77Q217.85-2.17 217.27-1.58L217.27-1.58L217.27-1.58Q216.68-0.99 215.92-0.53L215.92-0.53L215.92-0.53Q215.16-0.08 214.21 0.19L214.21 0.19L214.21 0.19Q213.26 0.46 212.12 0.46L212.12 0.46L212.12 0.46Q210.25 0.46 208.64-0.27L208.64-0.27L208.64-0.27Q207.02-0.99 205.83-2.32L205.83-2.32L205.83-2.32Q204.63-3.65 203.93-5.53L203.93-5.53L203.93-5.53Q203.22-7.41 203.22-9.77zM212.88-2.58L212.88-2.58L212.88-2.58Q214.32-2.58 215.61-3.27L215.61-3.27L215.61-3.27Q216.90-3.95 217.78-5.05L217.78-5.05L217.78-15.66L217.78-15.66Q216.75-16.38 215.52-16.82L215.52-16.82L215.52-16.82Q214.28-17.25 212.91-17.25L212.91-17.25L212.91-17.25Q211.55-17.25 210.41-16.72L210.41-16.72L210.41-16.72Q209.27-16.19 208.45-15.22L208.45-15.22L208.45-15.22Q207.63-14.25 207.18-12.88L207.18-12.88L207.18-12.88Q206.72-11.51 206.72-9.88L206.72-9.88L206.72-9.88Q206.72-8.28 207.18-6.93L207.18-6.93L207.18-6.93Q207.63-5.59 208.47-4.62L208.47-4.62L208.47-4.62Q209.30-3.65 210.43-3.12L210.43-3.12L210.43-3.12Q211.55-2.58 212.88-2.58" fill="#734ec6" stroke="none" stroke-width="none" transform="translate(-129.69500732421875,10.297453133719317)" style="fill: rgb(115, 78, 198);"></path></g><g class="path" style="transform: scale(0.91); transform-origin: 110.425px 0.322453px; animation: 12.5s linear -1.17857s infinite normal forwards running breath-fa40e219-7005-4813-8b5d-4bd37db79600;"><path d="M246.62-3.88L251.67-19.95L254.71-18.85L248.44 0L244.68 0L240.12-14.71L235.52 0L231.76 0L225.53-18.85L228.68-19.95L233.78-3.88L238.41-18.35L242.10-18.35L246.62-3.88" fill="#734ec6" stroke="none" stroke-width="none" transform="translate(-129.69500732421875,10.297453133719317)" style="fill: rgb(115, 78, 198);"></path></g><g class="path" style="transform: scale(0.91); transform-origin: 130.715px 0.417453px; animation: 12.5s linear -0.589286s infinite normal forwards running breath-fa40e219-7005-4813-8b5d-4bd37db79600;"><path d="M262.12-19.76L262.12 0L258.70 0L258.70-19.76L262.12-19.76" fill="#734ec6" stroke="none" stroke-width="none" transform="translate(-129.69500732421875,10.297453133719317)" style="fill: rgb(115, 78, 198);"></path></g><g class="path" style="transform: scale(0.91); transform-origin: 130.72px -15.2375px; animation: 12.5s linear 0s infinite normal forwards running breath-fa40e219-7005-4813-8b5d-4bd37db79600;"><path d="M260.41-23.14L260.41-23.14L260.41-23.14Q259.43-23.14 258.72-23.84L258.72-23.84L258.72-23.84Q258.02-24.55 258.02-25.54L258.02-25.54L258.02-25.54Q258.02-26.64 258.67-27.28L258.67-27.28L258.67-27.28Q259.31-27.93 260.41-27.93L260.41-27.93L260.41-27.93Q261.40-27.93 262.11-27.23L262.11-27.23L262.11-27.23Q262.81-26.52 262.81-25.54L262.81-25.54L262.81-25.54Q262.81-24.43 262.16-23.79L262.16-23.79L262.16-23.79Q261.52-23.14 260.41-23.14" fill="#734ec6" stroke="none" stroke-width="none" transform="translate(-129.69500732421875,10.297453133719317)" style="fill: rgb(115, 78, 198);"></path></g></g>
</g>
</g>
<style id="breath-fa40e219-7005-4813-8b5d-4bd37db79600" data-anikit="">@keyframes breath-fa40e219-7005-4813-8b5d-4bd37db79600
{
  0% {
    animation-timing-function: cubic-bezier(0.9647,0.2413,-0.0705,0.7911);
    transform: scale(0.9099999999999999);
  }
  51% {
    animation-timing-function: cubic-bezier(0.9226,0.2631,-0.0308,0.7628);
    transform: scale(1.02994);
  }
  100% {
    transform: scale(0.9099999999999999);
  }
}</style></svg>